<svg width="512" height="512" version="1.1" xmlns="http://www.w3.org/2000/svg" desc="Created with imagetracer.js version 1.2.6" ><path fill="rgb(118,157,153)" stroke="rgb(118,157,153)" stroke-width="1" opacity="0.6862745098039216" d="M 297.5 32 L 301 34.5 L 303 48.5 L 305 52.5 L 305 57.5 L 309 72.5 L 308 72.5 L 308 69.5 L 306 66.5 L 297.5 39 L 292 49.5 Q 290.5 58.5 286 64.5 L 282 79.5 L 279 84.5 L 279 87.5 L 273.5 98 L 273 95.5 L 275 93.5 L 275 89.5 L 277 86.5 L 279 77.5 L 281 75.5 L 281 72.5 L 285 65.5 L 293 39.5 L 297.5 32 Z " /><path fill="rgb(118,157,153)" stroke="rgb(118,157,153)" stroke-width="1" opacity="0.6862745098039216" d="M 390.5 57 Q 396 56 397 59.5 L 397 65.5 L 379 107.5 L 377 109.5 L 373 123.5 L 366 140.5 L 357 158.5 L 351 179.5 L 347.5 187 Q 342.9 188.3 345 182.5 L 343 179.5 L 343 174.5 L 341 170.5 L 341 166.5 L 339 162.5 L 339 158.5 L 332 133 Q 334.7 131.9 334 134.5 L 340 154.5 L 340 159.5 L 344 171.5 L 344 175.5 L 345.5 177 L 348.5 170 L 349 172.5 L 348 174.5 L 350 173.5 L 353 167.5 L 357 155.5 L 357 150.5 L 363 137.5 L 367 123.5 L 376 105.5 L 377 99.5 Q 384.4 85.3 388 68 L 383.5 68 L 353.5 78 L 334.5 88 L 323 92 L 326 105.5 L 328 108.5 L 328 112.5 L 331 118.5 L 333 131.5 L 331 130.5 L 327 114.5 L 325 111.5 L 323 98.5 L 321 95.5 L 321 88 L 362.5 72 L 367.5 68 L 382.5 62 L 390.5 57 Z " /><path fill="rgb(118,157,153)" stroke="rgb(118,157,153)" stroke-width="1" opacity="0.6862745098039216" d="M 309.5 74 L 311 78.5 L 310 78.5 L 309.5 74 Z " /><path fill="rgb(118,157,153)" stroke="rgb(118,157,153)" stroke-width="1" opacity="0.6862745098039216" d="M 312.5 84 L 313 86.5 L 312 86.5 L 312.5 84 Z " /><path fill="rgb(118,157,153)" stroke="rgb(118,157,153)" stroke-width="1" opacity="0.6862745098039216" d="M 326 98 L 328 98.5 L 326.5 101 L 326 98 Z " /><path fill="rgb(118,157,153)" stroke="rgb(118,157,153)" stroke-width="1" opacity="0.6862745098039216" d="M 272 99 L 274 99.5 L 271.5 104 L 271 101.5 L 272 99 Z " /><path fill="rgb(118,157,153)" stroke="rgb(118,157,153)" stroke-width="1" opacity="0.6862745098039216" d="M 316.5 99 L 318 102.5 L 317 102.5 L 316.5 99 Z " /><path fill="rgb(118,157,153)" stroke="rgb(118,157,153)" stroke-width="1" opacity="0.6862745098039216" d="M 270.5 105 L 271 107.5 L 269 108.5 L 270.5 105 Z " /><path fill="rgb(118,157,153)" stroke="rgb(118,157,153)" stroke-width="1" opacity="0.6862745098039216" d="M 318.5 105 L 320 109.5 L 318 108.5 L 318.5 105 Z " /><path fill="rgb(118,157,153)" stroke="rgb(118,157,153)" stroke-width="1" opacity="0.6862745098039216" d="M 268.5 110 L 269 113.5 L 266 115.5 L 268.5 110 Z " /><path fill="rgb(118,157,153)" stroke="rgb(118,157,153)" stroke-width="1" opacity="0.6862745098039216" d="M 105.5 113 L 249.5 113 L 250.5 114 L 262 114 Q 263.7 117.5 263 124.5 L 259 126 L 262 120.5 L 260.5 117 L 259.5 118 L 110.5 118 L 107 119 L 107 135.5 L 106 137.5 L 107 138.5 L 107 161.5 L 106 164.5 L 107 168.5 L 106 171.5 L 107 172.5 L 107 376.5 L 107 378.5 L 108.5 382 L 127 382.5 L 125.5 384 L 108.5 384 L 105 383 L 104 380.5 L 104 114.5 L 105.5 113 Z " /><path fill="rgb(118,157,153)" stroke="rgb(118,157,153)" stroke-width="1" opacity="0.6862745098039216" d="M 320 115 Q 323.3 113.7 322 118.5 L 322.5 120 L 320 115 Z " /><path fill="rgb(118,157,153)" stroke="rgb(118,157,153)" stroke-width="1" opacity="0.6862745098039216" d="M 322 122 Q 325 120.8 324 124.5 L 324.5 126 Q 322.3 126.8 323 124.5 L 322 122 Z " /><path fill="rgb(118,157,153)" stroke="rgb(118,157,153)" stroke-width="1" opacity="0.6862745098039216" d="M 324 128 Q 327 126.8 326 130.5 L 327 133 Q 324 134.3 325 130.5 L 324 128 Z " /><path fill="rgb(118,157,153)" stroke="rgb(118,157,153)" stroke-width="1" opacity="0.6862745098039216" d="M 380.5 129 Q 385.3 127.3 384 131.5 L 386 136.5 L 386 142.5 L 388 148.5 L 388 156.5 L 390 161.5 L 390 168.5 L 393 178.5 L 395 195.5 L 397 200.5 L 399 225.5 L 396.5 229 L 376.5 233 L 372.5 235 L 367.5 235 L 341.5 243 L 335.5 243 L 321 248 L 321 243.5 L 324 237.5 L 332 224.5 L 349 188.5 L 365 161.5 L 375 135.5 L 380.5 129 Z " /><path fill="rgb(118,157,153)" stroke="rgb(118,157,153)" stroke-width="1" opacity="0.6862745098039216" d="M 132.5 130 L 135.5 131 L 158.5 131 L 159.5 130 L 183.5 130 L 185.5 131 L 186.5 130 L 194.5 130 L 196.5 131 L 197.5 130 L 217.5 130 L 218.5 131 L 255 131.5 L 119 132 L 120 135.5 L 120 151.5 L 119 152.5 L 118.5 166 L 117 164.5 L 117 155.5 L 116 154.5 L 116 132.5 L 117 132.5 L 117.5 137 Q 116.9 132.4 119.5 131 L 131.5 131 L 132.5 130 Z " /><path fill="rgb(118,157,153)" stroke="rgb(118,157,153)" stroke-width="1" opacity="0.6862745098039216" d="M 265.5 130 L 268.5 130 L 278 134 L 277.5 136 Q 273.4 131.6 265.5 131 L 265.5 130 Z " /><path fill="rgb(118,157,153)" stroke="rgb(118,157,153)" stroke-width="1" opacity="0.6862745098039216" d="M 279.5 135 L 289 141.5 L 287.5 141 L 279 137 L 279.5 135 Z " /><path fill="rgb(118,157,153)" stroke="rgb(118,157,153)" stroke-width="1" opacity="0.6862745098039216" d="M 326.5 135 L 329 137.5 L 329 139.5 L 328.5 143 L 326.5 135 Z " /><path fill="rgb(118,157,153)" stroke="rgb(118,157,153)" stroke-width="1" opacity="0.6862745098039216" d="M 292.5 143 L 317 157.5 L 311.5 160 L 311 157 L 314 156.5 Q 309.3 152.3 301.5 151 L 293.5 145 L 292.5 143 Z " /><path fill="rgb(118,157,153)" stroke="rgb(118,157,153)" stroke-width="1" opacity="0.6862745098039216" d="M 329.5 144 L 331 148.5 L 330 148.5 L 329.5 144 Z " /><path fill="rgb(118,157,153)" stroke="rgb(118,157,153)" stroke-width="1" opacity="0.6862745098039216" d="M 244.5 145 L 266 145.5 L 263.5 147 L 242.5 147 L 239.5 150 L 223.5 150 L 222.5 151 L 156.5 151 L 155.5 150 L 133.5 150 L 132 151.5 L 131.5 329 L 131 152.5 L 130 149.5 L 132.5 147 L 137.5 146 L 243.5 146 L 244.5 145 Z " /><path fill="rgb(118,157,153)" stroke="rgb(118,157,153)" stroke-width="1" opacity="0.6862745098039216" d="M 272 146 Q 280.3 146.7 286 151.5 L 284.5 151 L 272 148 L 272 146 Z " /><path fill="rgb(118,157,153)" stroke="rgb(118,157,153)" stroke-width="1" opacity="0.6862745098039216" d="M 330.5 151 Q 333.1 150.2 332 153.5 L 333 156.5 L 331 155.5 L 331 153.5 L 330.5 151 Z " /><path fill="rgb(118,157,153)" stroke="rgb(118,157,153)" stroke-width="1" opacity="0.6862745098039216" d="M 293.5 154 L 297 155 L 298 157.5 L 296.5 158 L 293.5 154 Z " /><path fill="rgb(118,157,153)" stroke="rgb(118,157,153)" stroke-width="1" opacity="0.6862745098039216" d="M 292.5 158 Q 297.3 158.3 299 161.5 L 297.5 161 Q 292.5 160.9 292.5 158 Z " /><path fill="rgb(118,157,153)" stroke="rgb(118,157,153)" stroke-width="1" opacity="0.6862745098039216" d="M 332.5 159 Q 335.1 158.2 334 161.5 L 335 163.5 L 334 163.5 L 332.5 159 Z " /><path fill="rgb(118,157,153)" stroke="rgb(118,157,153)" stroke-width="1" opacity="0.6862745098039216" d="M 314 160 L 320 161 Q 321.3 164 317.5 163 L 314 162 L 314 160 Z " /><path fill="rgb(118,157,153)" stroke="rgb(118,157,153)" stroke-width="1" opacity="0.6862745098039216" d="M 300.5 162 L 305 165.5 L 307 168.5 L 304 166.5 L 301.5 163 L 300.5 162 Z " /><path fill="rgb(118,157,153)" stroke="rgb(118,157,153)" stroke-width="1" opacity="0.6862745098039216" d="M 322.5 163 L 324.5 164 L 326 163.5 Q 325.3 165.8 327.5 165 L 335.5 169 L 335 167.5 L 335.5 165 L 337 169.5 L 334.5 171 Q 330.3 165.7 322.5 164 L 322.5 163 Z " /><path fill="rgb(118,157,153)" stroke="rgb(118,157,153)" stroke-width="1" opacity="0.6862745098039216" d="M 117 168 L 119 168.5 L 119 310.5 L 118 315.5 L 119 316.5 L 119 365.5 L 120.5 367 L 154.5 367 L 156.5 366 L 158.5 367 L 159.5 366 L 200.5 366 L 203.5 367 L 207.5 366 L 208.5 367 L 334.5 367 L 336 365.5 L 336.5 310 L 337 320.5 L 338 321.5 L 338 366.5 L 337 369 L 334.5 370 L 120.5 370 L 116 366.5 L 117 363.5 L 117 168 Z " /><path fill="rgb(118,157,153)" stroke="rgb(118,157,153)" stroke-width="1" opacity="0.6862745098039216" d="M 253.5 169 L 263.5 169 L 264 171 L 254.5 171 L 253.5 169 Z " /><path fill="rgb(118,157,153)" stroke="rgb(118,157,153)" stroke-width="1" opacity="0.6862745098039216" d="M 307.5 170 L 309 172.5 L 307 171.5 L 307.5 170 Z " /><path fill="rgb(118,157,153)" stroke="rgb(118,157,153)" stroke-width="1" opacity="0.6862745098039216" d="M 274.5 171 L 275 173 L 273 172.5 L 274.5 171 Z " /><path fill="rgb(118,157,153)" stroke="rgb(118,157,153)" stroke-width="1" opacity="0.6862745098039216" d="M 151 173 L 203 173.5 L 153 174 L 153 184.5 L 152 186.5 L 154 189.5 L 154 232 L 264.5 232 L 282.5 237 L 290 241.5 L 288.5 242 L 280.5 238 L 273.5 237 L 266.5 234 L 218.5 234 L 217.5 235 L 169.5 235 L 168.5 236 L 154.5 236 L 151 235 L 151 173 Z " /><path fill="rgb(118,157,153)" stroke="rgb(118,157,153)" stroke-width="1" opacity="0.6862745098039216" d="M 206.5 173 Q 209.9 172.1 208 177.5 L 204.5 184 L 204 181.5 L 207 174.5 L 206.5 173 Z " /><path fill="rgb(118,157,153)" stroke="rgb(118,157,153)" stroke-width="1" opacity="0.6862745098039216" d="M 235.5 174 L 231 179.5 L 224.5 190 L 224 188.5 Q 227.6 179.1 235.5 174 Z " /><path fill="rgb(118,157,153)" stroke="rgb(118,157,153)" stroke-width="1" opacity="0.6862745098039216" d="M 282.5 176 L 285.5 180 L 282.5 176 Z " /><path fill="rgb(118,157,153)" stroke="rgb(118,157,153)" stroke-width="1" opacity="0.6862745098039216" d="M 311.5 179 L 313 181.5 L 312 181.5 L 311.5 179 Z " /><path fill="rgb(118,157,153)" stroke="rgb(118,157,153)" stroke-width="1" opacity="0.6862745098039216" d="M 287.5 182 L 291 186.5 L 290 186.5 L 287.5 182 Z " /><path fill="rgb(118,157,153)" stroke="rgb(118,157,153)" stroke-width="1" opacity="0.6862745098039216" d="M 203.5 185 L 204 187.5 L 202 192.5 L 201.5 210 L 201 192.5 L 203.5 185 Z " /><path fill="rgb(118,157,153)" stroke="rgb(118,157,153)" stroke-width="1" opacity="0.6862745098039216" d="M 315.5 189 L 316 191.5 L 315 191.5 L 315.5 189 Z " /><path fill="rgb(118,157,153)" stroke="rgb(118,157,153)" stroke-width="1" opacity="0.6862745098039216" d="M 322.5 197 L 324 197.5 L 318.5 199 L 318.5 198 L 322.5 197 Z " /><path fill="rgb(118,157,153)" stroke="rgb(118,157,153)" stroke-width="1" opacity="0.6862745098039216" d="M 295.5 198 L 296 201 L 292 200.5 L 295 200 L 295.5 198 Z " /><path fill="rgb(118,157,153)" stroke="rgb(118,157,153)" stroke-width="1" opacity="0.6862745098039216" d="M 222.5 199 L 223 201.5 L 222 201.5 L 222.5 199 Z " /><path fill="rgb(118,157,153)" stroke="rgb(118,157,153)" stroke-width="1" opacity="0.6862745098039216" d="M 325.5 199 L 327 199.5 L 326 202 Q 323.3 203.1 324 200.5 L 325.5 199 Z " /><path fill="rgb(118,157,153)" stroke="rgb(118,157,153)" stroke-width="1" opacity="0.6862745098039216" d="M 287.5 201 L 289 201.5 L 286.5 203 L 287.5 201 Z " /><path fill="rgb(118,157,153)" stroke="rgb(118,157,153)" stroke-width="1" opacity="0.6862745098039216" d="M 323 203 L 325 203.5 L 323.5 206 L 323 203 Z " /><path fill="rgb(118,157,153)" stroke="rgb(118,157,153)" stroke-width="1" opacity="0.6862745098039216" d="M 286.5 204 L 290 208.5 L 287 206.5 L 286.5 204 Z " /><path fill="rgb(118,157,153)" stroke="rgb(118,157,153)" stroke-width="1" opacity="0.6862745098039216" d="M 322.5 207 L 322 208.5 L 320.5 211 L 321 209.5 L 322.5 207 Z " /><path fill="rgb(118,157,153)" stroke="rgb(118,157,153)" stroke-width="1" opacity="0.6862745098039216" d="M 224.5 209 L 226 211.5 L 224 210.5 L 224.5 209 Z " /><path fill="rgb(118,157,153)" stroke="rgb(118,157,153)" stroke-width="1" opacity="0.6862745098039216" d="M 290.5 210 L 292.5 213 L 290.5 210 Z " /><path fill="rgb(118,157,153)" stroke="rgb(118,157,153)" stroke-width="1" opacity="0.6862745098039216" d="M 202.5 211 L 204 214.5 L 202 213.5 L 202.5 211 Z " /><path fill="rgb(118,157,153)" stroke="rgb(118,157,153)" stroke-width="1" opacity="0.6862745098039216" d="M 227.5 215 Q 231.1 220.4 238 222.5 L 236.5 223 L 231.5 221 L 228 217.5 L 227.5 215 Z " /><path fill="rgb(118,157,153)" stroke="rgb(118,157,153)" stroke-width="1" opacity="0.6862745098039216" d="M 203.5 216 L 207 227.5 L 205 226.5 L 203.5 216 Z " /><path fill="rgb(118,157,153)" stroke="rgb(118,157,153)" stroke-width="1" opacity="0.6862745098039216" d="M 294.5 216 L 299 222.5 L 297 221.5 L 294.5 216 Z " /><path fill="rgb(118,157,153)" stroke="rgb(118,157,153)" stroke-width="1" opacity="0.6862745098039216" d="M 317.5 216 L 317 217.5 L 316.5 219 L 316 217.5 L 317.5 216 Z " /><path fill="rgb(118,157,153)" stroke="rgb(118,157,153)" stroke-width="1" opacity="0.6862745098039216" d="M 315.5 220 L 315 221.5 L 314.5 223 L 314 221.5 L 315.5 220 Z " /><path fill="rgb(118,157,153)" stroke="rgb(118,157,153)" stroke-width="1" opacity="0.6862745098039216" d="M 239 223 Q 242.7 221.5 242 224.5 L 239.5 228 L 238 227.5 L 240 227 L 239 223 Z " /><path fill="rgb(118,157,153)" stroke="rgb(118,157,153)" stroke-width="1" opacity="0.6862745098039216" d="M 229 226 Q 234.4 224.5 236 227.5 L 229 228 L 229 226 Z " /><path fill="rgb(118,157,153)" stroke="rgb(118,157,153)" stroke-width="1" opacity="0.6862745098039216" d="M 300.5 226 Q 303.5 226.5 303 230.5 L 302 230.5 L 300.5 226 Z " /><path fill="rgb(118,157,153)" stroke="rgb(118,157,153)" stroke-width="1" opacity="0.6862745098039216" d="M 312.5 226 L 311.5 228 L 312.5 226 Z " /><path fill="rgb(118,157,153)" stroke="rgb(118,157,153)" stroke-width="1" opacity="0.6862745098039216" d="M 211.5 227 L 225 227.5 L 211.5 228 L 211.5 227 Z " /><path fill="rgb(118,157,153)" stroke="rgb(118,157,153)" stroke-width="1" opacity="0.6862745098039216" d="M 310.5 229 L 311 230.5 L 309 231.5 L 310.5 229 Z " /><path fill="rgb(118,157,153)" stroke="rgb(118,157,153)" stroke-width="1" opacity="0.6862745098039216" d="M 304.5 233 L 307.5 234 L 309 233.5 L 306.5 235 L 304.5 233 Z " /><path fill="rgb(118,157,153)" stroke="rgb(118,157,153)" stroke-width="1" opacity="0.6862745098039216" d="M 291.5 242 L 294 243.5 L 292.5 244 L 291.5 242 Z " /><path fill="rgb(118,157,153)" stroke="rgb(118,157,153)" stroke-width="1" opacity="0.6862745098039216" d="M 297.5 245 L 309 254.5 L 306.5 253 L 298.5 247 L 297.5 245 Z " /><path fill="rgb(118,157,153)" stroke="rgb(118,157,153)" stroke-width="1" opacity="0.6862745098039216" d="M 342.5 246 L 349.5 246 L 350 246.5 L 350 280.5 L 351 281.5 L 351 372.5 L 352 373.5 L 352 382.5 Q 351.3 385.8 346.5 385 L 345.5 384 L 301 383.5 L 314.5 382 L 316.5 382 L 347.5 382 L 350 381 L 350 375.5 L 347 370.5 L 347 298.5 Q 349.7 296.8 348 290.5 L 347 289.5 L 347 281.5 L 348 280.5 L 348 248 Q 341.3 246.6 338.5 250 L 336 249.5 L 342.5 246 Z " /><path fill="rgb(118,157,153)" stroke="rgb(118,157,153)" stroke-width="1" opacity="0.6862745098039216" d="M 153.5 258 L 160 258.5 L 153 259 L 153 280.5 L 152 283.5 L 154 288.5 L 154 323 L 152 323.5 L 204 324 L 203.5 326 L 152.5 326 L 151 322.5 L 152 320.5 L 151 319.5 L 151 274.5 L 152 273.5 L 152 259.5 L 153.5 258 Z " /><path fill="rgb(118,157,153)" stroke="rgb(118,157,153)" stroke-width="1" opacity="0.6862745098039216" d="M 180.5 258 L 222 258.5 L 180.5 259 L 180.5 258 Z " /><path fill="rgb(118,157,153)" stroke="rgb(118,157,153)" stroke-width="1" opacity="0.6862745098039216" d="M 224.5 258 L 229 258.5 L 224.5 259 L 224.5 258 Z " /><path fill="rgb(118,157,153)" stroke="rgb(118,157,153)" stroke-width="1" opacity="0.6862745098039216" d="M 311.5 258 L 315 262.5 L 312 260.5 L 311.5 258 Z " /><path fill="rgb(118,157,153)" stroke="rgb(118,157,153)" stroke-width="1" opacity="0.6862745098039216" d="M 256.5 259 Q 261.9 257.1 261 260.5 L 259.5 260 Q 255.5 260.8 256.5 259 Z " /><path fill="rgb(118,157,153)" stroke="rgb(118,157,153)" stroke-width="1" opacity="0.6862745098039216" d="M 262.5 260 Q 264.8 259.3 264 261.5 L 262.5 260 Z " /><path fill="rgb(118,157,153)" stroke="rgb(118,157,153)" stroke-width="1" opacity="0.6862745098039216" d="M 265.5 261 L 281.5 266 L 290 271.5 Q 289.3 273.8 291.5 273 L 293 276 Q 295.7 274.9 295 277.5 L 299 283.5 L 298 283.5 L 297 280.5 L 289.5 273 L 281.5 268 L 266.5 263 L 265.5 261 Z " /><path fill="rgb(118,157,153)" stroke="rgb(118,157,153)" stroke-width="1" opacity="0.6862745098039216" d="M 205.5 265 L 213 265.5 L 205.5 266 L 205.5 265 Z " /><path fill="rgb(118,157,153)" stroke="rgb(118,157,153)" stroke-width="1" opacity="0.6862745098039216" d="M 316.5 266 L 318 268.5 L 316 267.5 L 316.5 266 Z " /><path fill="rgb(118,157,153)" stroke="rgb(118,157,153)" stroke-width="1" opacity="0.6862745098039216" d="M 199 267 L 201 267.5 L 199 268.5 L 199 267 Z " /><path fill="rgb(118,157,153)" stroke="rgb(118,157,153)" stroke-width="1" opacity="0.6862745098039216" d="M 216.5 267 L 222 271.5 L 223 273.5 L 216.5 267 Z " /><path fill="rgb(118,157,153)" stroke="rgb(118,157,153)" stroke-width="1" opacity="0.6862745098039216" d="M 197.5 269 L 198 270.5 Q 193.3 271.9 194 277 L 192 276.5 L 197.5 269 Z " /><path fill="rgb(118,157,153)" stroke="rgb(118,157,153)" stroke-width="1" opacity="0.6862745098039216" d="M 318.5 270 L 322 277.5 L 323 295.5 L 322 295.5 L 322 288.5 L 318.5 270 Z " /><path fill="rgb(118,157,153)" stroke="rgb(118,157,153)" stroke-width="1" opacity="0.6862745098039216" d="M 190.5 282 L 191 284.5 L 190 284.5 L 190.5 282 Z " /><path fill="rgb(118,157,153)" stroke="rgb(118,157,153)" stroke-width="1" opacity="0.6862745098039216" d="M 227.5 284 L 228 290.5 L 227 290.5 L 227.5 284 Z " /><path fill="rgb(118,157,153)" stroke="rgb(118,157,153)" stroke-width="1" opacity="0.6862745098039216" d="M 299.5 285 L 301 290.5 L 300 290.5 L 299.5 285 Z " /><path fill="rgb(118,157,153)" stroke="rgb(118,157,153)" stroke-width="1" opacity="0.6862745098039216" d="M 190.5 290 L 192 292.5 L 190 293.5 L 190.5 290 Z " /><path fill="rgb(118,157,153)" stroke="rgb(118,157,153)" stroke-width="1" opacity="0.6862745098039216" d="M 225.5 297 L 226 298.5 L 224 299.5 L 225.5 297 Z " /><path fill="rgb(118,157,153)" stroke="rgb(118,157,153)" stroke-width="1" opacity="0.6862745098039216" d="M 322.5 297 L 323 303.5 L 321 313 Q 318.3 314.1 319 311.5 L 321 307.5 Q 320.3 300.8 322.5 297 Z " /><path fill="rgb(118,157,153)" stroke="rgb(118,157,153)" stroke-width="1" opacity="0.6862745098039216" d="M 192.5 298 L 194 300.5 L 193 300.5 L 192.5 298 Z " /><path fill="rgb(118,157,153)" stroke="rgb(118,157,153)" stroke-width="1" opacity="0.6862745098039216" d="M 300.5 301 L 301 304.5 L 299 311.5 L 289.5 323 L 281.5 327 L 278.5 327 L 278.5 326 L 288 322 L 289.5 319 L 293 316.5 L 299 307.5 Q 298.3 302.8 300.5 301 Z " /><path fill="rgb(118,157,153)" stroke="rgb(118,157,153)" stroke-width="1" opacity="0.6862745098039216" d="M 223.5 302 L 223 303.5 L 222.5 305 L 222 303.5 L 223.5 302 Z " /><path fill="rgb(118,157,153)" stroke="rgb(118,157,153)" stroke-width="1" opacity="0.6862745098039216" d="M 222.5 307 L 224 309.5 L 222 308.5 L 222.5 307 Z " /><path fill="rgb(118,157,153)" stroke="rgb(118,157,153)" stroke-width="1" opacity="0.6862745098039216" d="M 199.5 310 L 201 313.5 L 200 313.5 L 199.5 310 Z " /><path fill="rgb(118,157,153)" stroke="rgb(118,157,153)" stroke-width="1" opacity="0.6862745098039216" d="M 201.5 315 L 205 322.5 L 204 322.5 L 201.5 315 Z " /><path fill="rgb(118,157,153)" stroke="rgb(118,157,153)" stroke-width="1" opacity="0.6862745098039216" d="M 228.5 315 L 234.5 322 L 229 317.5 L 228.5 315 Z " /><path fill="rgb(118,157,153)" stroke="rgb(118,157,153)" stroke-width="1" opacity="0.6862745098039216" d="M 318 315 L 320 315.5 L 318.5 318 L 318 315 Z " /><path fill="rgb(118,157,153)" stroke="rgb(118,157,153)" stroke-width="1" opacity="0.6862745098039216" d="M 317.5 320 L 317 321.5 Q 313.6 331.6 306.5 338 Q 304.3 337.3 305 339.5 L 295.5 347 L 286.5 350 L 283.5 353 L 274.5 354 L 274.5 353 L 284.5 351 L 301.5 340 L 304 340 L 317.5 320 Z " /><path fill="rgb(118,157,153)" stroke="rgb(118,157,153)" stroke-width="1" opacity="0.6862745098039216" d="M 236.5 322 L 237.5 324 L 236.5 322 Z " /><path fill="rgb(118,157,153)" stroke="rgb(118,157,153)" stroke-width="1" opacity="0.6862745098039216" d="M 244.5 326 L 250 327 Q 251.1 329.7 248.5 329 L 244.5 327 L 244.5 326 Z " /><path fill="rgb(118,157,153)" stroke="rgb(118,157,153)" stroke-width="1" opacity="0.6862745098039216" d="M 274.5 327 L 277 327.5 Q 275.8 330.3 270.5 329 L 270.5 328 L 274.5 327 Z " /><path fill="rgb(118,157,153)" stroke="rgb(118,157,153)" stroke-width="1" opacity="0.6862745098039216" d="M 255.5 328 L 261 328.5 L 255.5 329 L 255.5 328 Z " /><path fill="rgb(118,157,153)" stroke="rgb(118,157,153)" stroke-width="1" opacity="0.6862745098039216" d="M 265.5 328 L 269 328.5 L 265.5 329 L 265.5 328 Z " /><path fill="rgb(118,157,153)" stroke="rgb(118,157,153)" stroke-width="1" opacity="0.6862745098039216" d="M 131.5 330 L 132 334.5 L 131 334.5 L 131.5 330 Z " /><path fill="rgb(118,157,153)" stroke="rgb(118,157,153)" stroke-width="1" opacity="0.6862745098039216" d="M 131.5 339 L 132 348.5 L 133.5 350 L 239.5 350 Q 243.4 353.3 251 352 Q 252.3 355.7 246.5 354 L 244.5 354 Q 239.8 355.3 238.5 353 L 132.5 353 L 131 351.5 L 131.5 339 Z " /><path fill="rgb(118,157,153)" stroke="rgb(118,157,153)" stroke-width="1" opacity="0.6862745098039216" d="M 254.5 353 L 258 354.5 L 253.5 355 L 254.5 353 Z " /><path fill="rgb(118,157,153)" stroke="rgb(118,157,153)" stroke-width="1" opacity="0.6862745098039216" d="M 267.5 353 Q 273.4 351.3 272 355 L 266 354.5 L 267.5 353 Z " /><path fill="rgb(0,0,0)" stroke="rgb(0,0,0)" stroke-width="1" opacity="0" d="M 0 0 L 512 0 L 512 512 L 0.5 512 L 0 511.5 L 0 354.5 L 0 352.5 L 0 0 Z M 298 32 L 293 40 L 285 66 L 281 73 L 281 76 L 279 78 L 277 87 L 275 90 L 275 94 L 273 96 L 271 105 L 269 107 Q 269 114 265 118 L 264 130 L 276 134 Q 277 137 279 135 L 279 137 Q 292 142 302 151 Q 309 152 314 157 L 311 157 L 311 160 Q 315 159 314 162 L 318 163 L 321 162 L 335 171 L 337 170 L 329 144 L 329 140 L 329 138 L 327 135 L 327 133 L 326 129 Q 322 127 325 126 L 320 112 L 320 110 L 309 74 L 309 70 L 305 58 L 305 53 L 303 49 L 301 35 L 298 32 Z M 391 57 L 383 62 L 368 68 L 363 72 L 321 88 L 321 96 L 325 107 L 325 112 L 331 128 L 334 143 L 336 147 L 336 151 L 339 159 L 339 163 L 341 167 L 341 171 L 343 175 L 343 180 L 345 183 Q 343 188 348 187 L 351 180 L 357 159 L 366 141 L 373 124 L 377 110 L 379 108 L 397 66 L 397 60 Q 396 56 391 57 Z M 106 113 L 104 115 L 104 381 L 105 383 L 109 384 L 126 384 L 127 383 L 301 383 L 302 384 L 346 384 L 347 385 Q 351 386 352 383 L 352 374 L 351 373 L 351 282 L 350 281 L 350 246 Q 340 245 336 250 L 337 252 L 336 253 L 336 366 L 335 367 L 209 367 L 208 366 L 204 367 L 201 366 L 160 366 L 159 367 L 157 366 L 155 367 L 121 367 L 119 366 L 119 317 L 118 316 L 119 311 L 119 169 L 118 168 L 119 166 L 119 153 L 120 152 L 120 136 L 119 132 L 255 132 L 259 131 L 260 129 L 259 126 L 263 125 Q 264 117 262 114 L 251 114 L 250 113 L 106 113 Z M 381 129 L 375 136 L 365 162 L 349 189 L 332 225 L 324 238 L 321 244 L 321 248 L 336 243 L 342 243 L 368 235 L 373 235 L 377 233 L 397 229 L 399 226 L 397 201 L 395 196 L 393 179 L 390 169 L 390 162 L 388 157 L 388 149 L 386 143 L 386 137 L 384 132 Q 385 127 381 129 Z M 245 145 L 244 146 L 138 146 L 133 147 L 130 150 L 131 153 L 131 352 L 133 353 L 239 353 L 240 354 Q 244 355 246 353 L 254 355 L 272 355 L 273 354 L 284 353 L 287 350 L 296 347 L 305 340 Q 304 337 307 338 Q 319 325 323 304 L 323 284 Q 321 282 322 278 L 318 268 L 311 258 L 309 255 Q 292 238 265 232 L 154 232 L 154 190 L 153 189 L 153 175 L 154 174 L 203 174 L 203 172 L 207 175 L 201 193 L 201 210 L 205 223 L 205 227 Q 206 229 208 227 L 210 228 L 226 228 L 227 227 L 230 228 Q 235 230 237 227 L 240 228 L 242 223 L 239 223 L 233 220 L 225 211 Q 226 208 224 209 L 224 208 L 223 205 L 223 203 L 222 198 L 228 184 L 237 174 Q 239 175 238 173 L 240 173 Q 243 174 242 171 L 245 172 L 248 170 Q 253 169 255 171 L 264 171 L 265 170 Q 270 168 269 172 L 272 171 Q 274 170 273 173 L 282 176 Q 292 184 295 200 L 288 201 L 286 205 L 293 214 L 302 230 Q 301 232 304 231 L 304 234 L 308 235 L 317 218 L 317 216 L 319 215 L 322 209 L 322 207 L 324 206 L 326 201 Q 329 199 325 197 L 318 198 L 318 197 L 314 185 Q 310 183 313 182 L 307 170 L 307 167 Q 304 168 305 166 L 295 159 L 298 158 L 297 155 L 287 152 L 275 146 L 272 147 L 266 145 L 245 145 Z " /><path fill="rgb(0,0,0)" stroke="rgb(0,0,0)" stroke-width="1" opacity="0" d="M 184.5 172 L 195 172.5 L 184.5 173 L 184.5 172 Z " /><path fill="rgb(0,0,0)" stroke="rgb(0,0,0)" stroke-width="1" opacity="0" d="M 153 259 L 255.5 259 L 260.5 261 L 261.5 260 L 266.5 263 L 285.5 270 L 297 280.5 L 301 291.5 L 301 297.5 L 301 299.5 L 297 311.5 L 290.5 319 L 288 320.5 Q 288.8 322.8 286.5 322 L 277.5 327 L 261.5 329 L 260.5 328 L 250.5 328 L 238.5 324 L 227 315 L 227 313 Q 224.3 314.1 225 311.5 L 222 305.5 L 226 297.5 L 225 295 Q 228.3 296.3 227 291.5 Q 229.5 290 228 284.5 L 222 271.5 L 218.5 268 L 212.5 265 L 205.5 265 L 199 267 Q 200.1 269.7 197.5 269 L 192 276.5 L 190 285.5 L 191 289.5 L 190 293.5 L 199 309.5 L 205 324.5 L 203.5 324 L 152 323.5 L 154 323 L 153 259 Z " /><path fill="rgb(57,89,87)" stroke="rgb(57,89,87)" stroke-width="1" opacity="0.9568627450980393" d="M 297.5 39 L 306 66.5 L 308 69.5 L 309 76.5 L 311 79.5 L 311 81.5 L 314 90.5 L 313 91.5 L 314.5 94 Q 312.3 93.3 313 95.5 L 316 96.5 L 316 100.5 L 319 109.5 L 318 111.5 L 320 111.5 L 321 114.5 L 320 116.5 L 323 121.5 L 322 123.5 L 325 127.5 L 324 129.5 L 327 134.5 L 326 136.5 L 331 150.5 L 331 152.5 L 332 154.5 Q 329.5 156 333 157.5 L 332 159.5 L 336 168.5 L 334.5 169 L 326 165 L 325.5 163 L 323.5 163 L 320.5 161 L 315 160 Q 313.9 157.3 316.5 158 L 315.5 156 L 297.5 145 L 289.5 142 L 282 136.5 L 283.5 137 L 291.5 141 L 289.5 138 L 281.5 135 L 280 135.5 Q 280.9 132.5 276.5 134 L 268.5 130 L 264 130 L 264 122.5 L 266 116.5 L 269 113.5 L 269 109.5 L 274 99.5 Q 271.5 98 275 96.5 L 276 91.5 L 282 79.5 L 286 64.5 L 297.5 39 Z M 298 42 L 296 47 Q 294 48 297 50 Q 295 54 299 53 L 298 52 L 299 50 L 299 52 L 300 52 L 298 42 Z M 304 62 L 303 65 L 304 65 L 304 62 Z " /><path fill="rgb(57,89,87)" stroke="rgb(57,89,87)" stroke-width="1" opacity="0.9568627450980393" d="M 383.5 68 Q 388.9 66.1 388 69.5 L 382 88.5 L 377 99.5 L 376 105.5 L 367 123.5 L 363 137.5 L 357 150.5 L 357 155.5 L 353 167.5 L 347.5 176 L 348 174.5 L 347.5 173 L 346 176.5 L 347 178.5 L 346 178.5 L 344 175.5 L 344 171.5 L 340 159.5 L 340 154.5 L 334 133 L 332 132.5 L 333 127.5 L 323 92 L 334.5 88 L 353.5 78 L 383.5 68 Z M 326 98 L 327 101 L 328 99 L 326 98 Z M 349 170 L 348 173 L 349 173 L 349 170 Z " /><path fill="rgb(57,89,87)" stroke="rgb(57,89,87)" stroke-width="1" opacity="0.9568627450980393" d="M 260.5 117 L 262 120.5 L 259.5 124 L 258 123.5 L 259 120.5 L 255.5 119 L 254.5 120 L 125.5 120 L 124 121.5 L 125 124.5 L 125 126.5 Q 123.3 131.3 127.5 130 L 128.5 129 L 140 129 L 140.5 127 L 145.5 130 L 146.5 127 Q 147.8 129.3 152.5 128 L 154 127.5 L 154.5 129 L 218.5 129 L 219.5 130 L 254 130.5 L 218.5 131 L 217.5 130 L 197.5 130 L 195.5 131 L 194.5 130 L 186.5 130 L 184.5 131 L 183.5 130 L 159.5 130 L 158.5 131 L 135.5 131 L 132.5 130 L 131.5 131 L 119.5 131 L 118 132.5 L 117.5 137 L 116.5 132 L 116 154.5 L 117 155.5 L 118 167.5 L 116.5 174 L 114 142.5 Q 116.2 141.3 115 136.5 Q 111 134.5 115 132.5 L 115 121.5 L 113.5 120 L 109 121 L 109 133.5 L 110 134.5 Q 107.3 135.3 108 139.5 L 109 143.5 L 108 148.5 L 109 151.5 L 108 152.5 L 108 353.5 L 109 354.5 L 109 373.5 L 110 374.5 L 108 377.5 L 112.5 380 L 114.5 380 L 125.5 380 L 127.5 379 L 128.5 380 L 140.5 380 L 141.5 381 L 143.5 381 L 148.5 380 L 150 380.5 L 150.5 379 L 157.5 379 Q 159.3 381.7 165.5 380 L 169 379 L 169.5 381 L 171.5 380 Q 173 382.5 174.5 379 L 177.5 381 Q 178.7 378.8 183.5 380 L 185.5 381 Q 188.4 377.4 196.5 379 L 198.5 380 L 201.5 379 L 203.5 379 L 208.5 380 L 209.5 379 L 230.5 379 L 231.5 378 L 232.5 379 L 243.5 379 L 244.5 380 L 249.5 379 L 252.5 380 L 253.5 379 L 261 379 Q 259.6 382.7 265.5 381 L 267.5 380 L 270.5 381 L 275.5 379 L 276.5 380 L 284.5 380 L 286.5 379 L 288.5 379 L 290.5 378 L 290.5 380 L 297.5 379 L 300.5 380 L 301.5 379 L 329.5 379 L 332.5 380 L 333.5 379 L 345.5 379 L 347 377.5 L 345 367.5 L 346 366.5 L 346 266.5 L 347 264.5 L 346 261.5 L 347 258.5 L 346 255.5 L 347 249 L 341 248.5 L 348 248 L 348 280.5 L 347 281.5 L 347 289.5 Q 349.7 291.2 348 297.5 L 347 298.5 L 347 370.5 L 350 375.5 L 350 381 L 347.5 382 L 316.5 382 L 315.5 383 L 311.5 382 L 310.5 383 L 127.5 383 L 126.5 382 L 108.5 382 L 107 380.5 L 106 377.5 L 107 376.5 L 107 172.5 L 106 169.5 L 107 165.5 L 106 162.5 L 107 161.5 L 107 138.5 L 106 136.5 L 107 135.5 L 107 119 L 110.5 118 L 259.5 118 L 260.5 117 Z M 116 120 Q 115 128 117 131 L 123 129 L 123 120 L 116 120 Z " /><path fill="rgb(57,89,87)" stroke="rgb(57,89,87)" stroke-width="1" opacity="0.9568627450980393" d="M 258.5 125 L 259 129.5 L 257 130.5 L 258.5 125 Z " /><path fill="rgb(57,89,87)" stroke="rgb(57,89,87)" stroke-width="1" opacity="0.9568627450980393" d="M 264.5 146 Q 270.5 144.5 272 147.5 L 268.5 148 L 264.5 147 L 264.5 146 Z " /><path fill="rgb(57,89,87)" stroke="rgb(57,89,87)" stroke-width="1" opacity="0.9568627450980393" d="M 242.5 147 L 250.5 147 L 252 148.5 L 239.5 151 L 223.5 151 L 223.5 150 L 239.5 150 L 242.5 147 Z " /><path fill="rgb(57,89,87)" stroke="rgb(57,89,87)" stroke-width="1" opacity="0.9568627450980393" d="M 253.5 147 L 256 147.5 L 253.5 148 L 253.5 147 Z " /><path fill="rgb(57,89,87)" stroke="rgb(57,89,87)" stroke-width="1" opacity="0.9568627450980393" d="M 277.5 149 L 280 149.5 Q 277.9 152.8 277.5 149 Z " /><path fill="rgb(57,89,87)" stroke="rgb(57,89,87)" stroke-width="1" opacity="0.9568627450980393" d="M 133.5 150 L 156 150.5 L 134.5 151 L 133 152.5 L 133 347.5 L 133.5 348 L 154.5 348 L 155.5 347 L 205.5 347 L 206.5 348 L 234.5 348 L 235.5 349 L 248.5 350 L 251.5 352 L 275.5 352 Q 277.2 349.2 282.5 350 L 301 340 L 302.5 337 L 309 331.5 L 317 318.5 L 321 296.5 L 320 295.5 L 319 278.5 L 320 278.5 L 322 288.5 L 322 295.5 L 323 296.5 L 319 312.5 L 320 315 Q 316.3 313.6 318 319.5 L 304 340 L 301.5 340 L 284.5 351 L 272.5 354 L 267.5 353 Q 265.8 356.8 258.5 355 L 254.5 353 L 251 354 L 250.5 352 L 243.5 352 L 239.5 350 L 133.5 350 L 132 348.5 L 132 339.5 L 131 338.5 L 132 336.5 L 132 334.5 L 131 329.5 L 132 328.5 L 132 151.5 L 133.5 150 Z " /><path fill="rgb(57,89,87)" stroke="rgb(57,89,87)" stroke-width="1" opacity="0.9568627450980393" d="M 170.5 151 L 210 151.5 L 170.5 152 L 170.5 151 Z " /><path fill="rgb(57,89,87)" stroke="rgb(57,89,87)" stroke-width="1" opacity="0.9568627450980393" d="M 284.5 151 L 285.5 153 L 284.5 151 Z " /><path fill="rgb(57,89,87)" stroke="rgb(57,89,87)" stroke-width="1" opacity="0.9568627450980393" d="M 288.5 153 L 291 154.5 L 289.5 155 L 288.5 153 Z " /><path fill="rgb(57,89,87)" stroke="rgb(57,89,87)" stroke-width="1" opacity="0.9568627450980393" d="M 292.5 155 L 296 157.5 L 294 158 Q 295.1 155.3 292.5 156 L 292.5 155 Z " /><path fill="rgb(57,89,87)" stroke="rgb(57,89,87)" stroke-width="1" opacity="0.9568627450980393" d="M 291.5 158 L 292.5 160 L 291.5 158 Z " /><path fill="rgb(57,89,87)" stroke="rgb(57,89,87)" stroke-width="1" opacity="0.9568627450980393" d="M 301.5 163 L 303.5 166 L 301.5 163 Z " /><path fill="rgb(57,89,87)" stroke="rgb(57,89,87)" stroke-width="1" opacity="0.9568627450980393" d="M 304.5 167 L 306.5 170 L 304.5 167 Z " /><path fill="rgb(57,89,87)" stroke="rgb(57,89,87)" stroke-width="1" opacity="0.9568627450980393" d="M 244 170 L 247 170.5 L 244.5 172 L 244 170 Z " /><path fill="rgb(57,89,87)" stroke="rgb(57,89,87)" stroke-width="1" opacity="0.9568627450980393" d="M 269.5 170 L 272 170.5 L 269.5 171 L 269.5 170 Z " /><path fill="rgb(57,89,87)" stroke="rgb(57,89,87)" stroke-width="1" opacity="0.9568627450980393" d="M 239 171 L 242 171.5 L 239.5 173 L 239 171 Z " /><path fill="rgb(57,89,87)" stroke="rgb(57,89,87)" stroke-width="1" opacity="0.9568627450980393" d="M 209.5 172 L 209 173.5 L 208.5 177 L 208 173.5 L 209.5 172 Z " /><path fill="rgb(57,89,87)" stroke="rgb(57,89,87)" stroke-width="1" opacity="0.9568627450980393" d="M 275.5 172 L 279 172 Q 277.9 174.7 280.5 174 L 283 175.5 L 281.5 176 L 275.5 173 L 275.5 172 Z " /><path fill="rgb(57,89,87)" stroke="rgb(57,89,87)" stroke-width="1" opacity="0.9568627450980393" d="M 150.5 173 L 151 176.5 L 150 176.5 L 150.5 173 Z " /><path fill="rgb(57,89,87)" stroke="rgb(57,89,87)" stroke-width="1" opacity="0.9568627450980393" d="M 235.5 173 L 238 173.5 L 235.5 174 L 235.5 173 Z " /><path fill="rgb(57,89,87)" stroke="rgb(57,89,87)" stroke-width="1" opacity="0.9568627450980393" d="M 232.5 176 L 227 182.5 L 223.5 191 L 223 187.5 L 228.5 179 L 232.5 176 Z " /><path fill="rgb(57,89,87)" stroke="rgb(57,89,87)" stroke-width="1" opacity="0.9568627450980393" d="M 284.5 177 L 287 181 Q 289.7 179.9 289 182.5 L 290.5 185 L 284.5 177 Z " /><path fill="rgb(57,89,87)" stroke="rgb(57,89,87)" stroke-width="1" opacity="0.9568627450980393" d="M 207.5 178 L 208 179.5 L 205 181.5 L 207.5 178 Z " /><path fill="rgb(57,89,87)" stroke="rgb(57,89,87)" stroke-width="1" opacity="0.9568627450980393" d="M 150.5 181 L 151 235 L 154 235.5 L 151.5 236 L 150 234.5 L 150.5 181 Z " /><path fill="rgb(57,89,87)" stroke="rgb(57,89,87)" stroke-width="1" opacity="0.9568627450980393" d="M 291.5 187 L 293 189.5 L 292 189.5 L 291.5 187 Z " /><path fill="rgb(57,89,87)" stroke="rgb(57,89,87)" stroke-width="1" opacity="0.9568627450980393" d="M 203.5 189 L 204 191.5 L 203 191.5 L 203.5 189 Z " /><path fill="rgb(57,89,87)" stroke="rgb(57,89,87)" stroke-width="1" opacity="0.9568627450980393" d="M 223.5 192 L 222.5 194 L 223.5 192 Z " /><path fill="rgb(57,89,87)" stroke="rgb(57,89,87)" stroke-width="1" opacity="0.9568627450980393" d="M 315.5 194 L 316.5 196 L 315.5 194 Z " /><path fill="rgb(57,89,87)" stroke="rgb(57,89,87)" stroke-width="1" opacity="0.9568627450980393" d="M 322.5 198 L 324 198.5 L 320.5 200 L 320.5 199 L 322.5 198 Z " /><path fill="rgb(57,89,87)" stroke="rgb(57,89,87)" stroke-width="1" opacity="0.9568627450980393" d="M 289.5 201 L 288.5 203 L 287 202.5 L 289.5 201 Z " /><path fill="rgb(57,89,87)" stroke="rgb(57,89,87)" stroke-width="1" opacity="0.9568627450980393" d="M 293.5 201 L 296 201.5 L 293.5 202 L 293.5 201 Z " /><path fill="rgb(57,89,87)" stroke="rgb(57,89,87)" stroke-width="1" opacity="0.9568627450980393" d="M 287.5 204 L 291 209.5 L 290 209.5 L 287.5 204 Z " /><path fill="rgb(57,89,87)" stroke="rgb(57,89,87)" stroke-width="1" opacity="0.9568627450980393" d="M 320.5 209 L 320 210.5 L 317.5 215 L 318 213.5 L 320.5 209 Z " /><path fill="rgb(57,89,87)" stroke="rgb(57,89,87)" stroke-width="1" opacity="0.9568627450980393" d="M 202.5 210 L 206 215.5 L 206 220.5 L 208 226.5 L 206 225.5 Q 206.7 218.3 203 215.5 L 203 213.5 L 202.5 210 Z " /><path fill="rgb(57,89,87)" stroke="rgb(57,89,87)" stroke-width="1" opacity="0.9568627450980393" d="M 225.5 214 Q 227.8 213.3 227 215.5 L 227.5 217 L 225.5 214 Z " /><path fill="rgb(57,89,87)" stroke="rgb(57,89,87)" stroke-width="1" opacity="0.9568627450980393" d="M 228.5 218 L 231.5 221 L 239 223 L 240 227 Q 236.7 228.1 238 224 L 234.5 224 L 228 219.5 L 228.5 218 Z " /><path fill="rgb(57,89,87)" stroke="rgb(57,89,87)" stroke-width="1" opacity="0.9568627450980393" d="M 296.5 218 L 297.5 220 L 296.5 218 Z " /><path fill="rgb(57,89,87)" stroke="rgb(57,89,87)" stroke-width="1" opacity="0.9568627450980393" d="M 315.5 219 L 314.5 221 L 315.5 219 Z " /><path fill="rgb(57,89,87)" stroke="rgb(57,89,87)" stroke-width="1" opacity="0.9568627450980393" d="M 298.5 221 L 300 223.5 L 299 223.5 L 298.5 221 Z " /><path fill="rgb(57,89,87)" stroke="rgb(57,89,87)" stroke-width="1" opacity="0.9568627450980393" d="M 300.5 225 L 302.5 228 L 300.5 225 Z " /><path fill="rgb(57,89,87)" stroke="rgb(57,89,87)" stroke-width="1" opacity="0.9568627450980393" d="M 312.5 225 L 311.5 227 L 312.5 225 Z " /><path fill="rgb(57,89,87)" stroke="rgb(57,89,87)" stroke-width="1" opacity="0.9568627450980393" d="M 218.5 234 L 266.5 234 L 273 236.5 L 269.5 237 Q 268.3 234.7 263.5 236 L 261.5 236 L 259.5 237 L 156.5 237 L 156.5 236 L 168.5 236 L 169.5 235 L 217.5 235 L 218.5 234 Z " /><path fill="rgb(57,89,87)" stroke="rgb(57,89,87)" stroke-width="1" opacity="0.9568627450980393" d="M 274.5 237 Q 278.9 235.5 278 238.5 L 276.5 238 Q 273.5 238.5 274.5 237 Z " /><path fill="rgb(57,89,87)" stroke="rgb(57,89,87)" stroke-width="1" opacity="0.9568627450980393" d="M 279.5 238 L 283 239.5 L 281.5 240 L 279.5 238 Z " /><path fill="rgb(57,89,87)" stroke="rgb(57,89,87)" stroke-width="1" opacity="0.9568627450980393" d="M 285.5 240 L 288 241.5 L 286.5 242 L 285.5 240 Z " /><path fill="rgb(57,89,87)" stroke="rgb(57,89,87)" stroke-width="1" opacity="0.9568627450980393" d="M 296.5 245 L 302 249.5 L 299.5 248 L 296.5 245 Z " /><path fill="rgb(57,89,87)" stroke="rgb(57,89,87)" stroke-width="1" opacity="0.9568627450980393" d="M 337.5 249 L 336.5 251 L 337.5 249 Z " /><path fill="rgb(57,89,87)" stroke="rgb(57,89,87)" stroke-width="1" opacity="0.9568627450980393" d="M 336.5 252 L 338 253.5 L 338 279.5 L 339.5 286 L 340.5 282 L 341 288.5 L 339 288.5 L 338 297.5 L 339 299.5 Q 336.7 300.8 338 305.5 L 339 306.5 L 339.5 317 L 340.5 313 L 342 315.5 L 341 318.5 L 341 320.5 L 340 325.5 L 342 329.5 L 341 333.5 L 342 336.5 L 341 341.5 L 342 343.5 Q 339.5 345 341 350.5 L 342 354.5 L 341 355.5 L 341 367.5 L 338 371.5 L 339.5 374 L 332.5 375 L 331.5 374 L 246.5 373 L 245.5 374 L 125.5 374 L 123.5 373 L 116.5 375 L 116 372.5 L 114 367.5 L 114 363.5 L 115 361.5 L 114 360.5 L 114 338.5 L 115 337.5 L 116.5 295 L 117 363.5 L 116 366.5 L 120.5 370 L 334.5 370 L 337 369 L 338 366.5 L 338 321.5 L 337 320.5 L 336 306.5 L 336 304.5 L 336 268.5 L 337 267.5 L 336 266.5 L 336.5 252 Z " /><path fill="rgb(57,89,87)" stroke="rgb(57,89,87)" stroke-width="1" opacity="0.9568627450980393" d="M 307.5 254 L 308.5 256 L 307.5 254 Z " /><path fill="rgb(57,89,87)" stroke="rgb(57,89,87)" stroke-width="1" opacity="0.9568627450980393" d="M 162.5 257 L 163 259 L 160 258.5 L 162.5 257 Z " /><path fill="rgb(57,89,87)" stroke="rgb(57,89,87)" stroke-width="1" opacity="0.9568627450980393" d="M 175.5 257 L 180 258.5 L 174.5 259 L 175.5 257 Z " /><path fill="rgb(57,89,87)" stroke="rgb(57,89,87)" stroke-width="1" opacity="0.9568627450980393" d="M 181.5 257 L 185 257.5 L 181.5 258 L 181.5 257 Z " /><path fill="rgb(57,89,87)" stroke="rgb(57,89,87)" stroke-width="1" opacity="0.9568627450980393" d="M 229.5 258 L 255 258.5 L 229.5 259 L 229.5 258 Z " /><path fill="rgb(57,89,87)" stroke="rgb(57,89,87)" stroke-width="1" opacity="0.9568627450980393" d="M 311.5 259 L 318 269.5 L 319 276.5 L 318 276.5 L 317 270.5 L 314 263.5 L 311 260.5 L 311.5 259 Z " /><path fill="rgb(57,89,87)" stroke="rgb(57,89,87)" stroke-width="1" opacity="0.9568627450980393" d="M 264.5 260 L 270 261.5 L 266.5 262 L 264.5 260 Z " /><path fill="rgb(57,89,87)" stroke="rgb(57,89,87)" stroke-width="1" opacity="0.9568627450980393" d="M 151.5 261 L 152 273.5 L 151 273.5 L 151.5 261 Z " /><path fill="rgb(57,89,87)" stroke="rgb(57,89,87)" stroke-width="1" opacity="0.9568627450980393" d="M 271.5 262 Q 281.4 263.8 288 268 L 287.5 270 Q 281.4 264.6 271.5 263 L 271.5 262 Z " /><path fill="rgb(57,89,87)" stroke="rgb(57,89,87)" stroke-width="1" opacity="0.9568627450980393" d="M 204.5 266 L 203.5 268 L 201 269.5 L 201 271 L 199 271 Q 200.1 273.7 197.5 273 L 196.5 276 Q 193.2 277.1 194 274.5 L 198 269 L 204.5 266 Z " /><path fill="rgb(57,89,87)" stroke="rgb(57,89,87)" stroke-width="1" opacity="0.9568627450980393" d="M 215.5 267 L 223 274.5 L 224 277.5 L 223 277.5 L 215.5 267 Z " /><path fill="rgb(57,89,87)" stroke="rgb(57,89,87)" stroke-width="1" opacity="0.9568627450980393" d="M 289.5 270 L 293 272 L 292.5 274 L 290 273 L 289.5 270 Z " /><path fill="rgb(57,89,87)" stroke="rgb(57,89,87)" stroke-width="1" opacity="0.9568627450980393" d="M 192.5 277 L 195 277.5 L 192.5 278 L 192.5 277 Z " /><path fill="rgb(57,89,87)" stroke="rgb(57,89,87)" stroke-width="1" opacity="0.9568627450980393" d="M 295.5 277 Q 299.5 278.9 300 284.5 L 299 284.5 L 295.5 277 Z " /><path fill="rgb(57,89,87)" stroke="rgb(57,89,87)" stroke-width="1" opacity="0.9568627450980393" d="M 192.5 279 Q 195.8 280.8 192 282.5 Q 193.5 286.9 190.5 286 L 191 284.5 L 192.5 279 Z " /><path fill="rgb(57,89,87)" stroke="rgb(57,89,87)" stroke-width="1" opacity="0.9568627450980393" d="M 150.5 281 L 151 319.5 L 152 321.5 L 150.5 324 L 150.5 281 Z " /><path fill="rgb(57,89,87)" stroke="rgb(57,89,87)" stroke-width="1" opacity="0.9568627450980393" d="M 152.5 281 L 153 283.5 L 152 283.5 L 152.5 281 Z " /><path fill="rgb(57,89,87)" stroke="rgb(57,89,87)" stroke-width="1" opacity="0.9568627450980393" d="M 225.5 282 Q 228.8 283.8 227 290.5 L 226 290.5 Q 226.6 283.8 225.5 282 Z " /><path fill="rgb(57,89,87)" stroke="rgb(57,89,87)" stroke-width="1" opacity="0.9568627450980393" d="M 301.5 290 L 302 301.5 L 301 301.5 L 301.5 290 Z " /><path fill="rgb(57,89,87)" stroke="rgb(57,89,87)" stroke-width="1" opacity="0.9568627450980393" d="M 225 292 L 227 292.5 L 225.5 295 L 225 292 Z " /><path fill="rgb(57,89,87)" stroke="rgb(57,89,87)" stroke-width="1" opacity="0.9568627450980393" d="M 191.5 293 L 193 295.5 L 191 294.5 L 191.5 293 Z " /><path fill="rgb(57,89,87)" stroke="rgb(57,89,87)" stroke-width="1" opacity="0.9568627450980393" d="M 192.5 297 Q 194.8 296.3 194 298.5 L 194.5 300 L 192.5 297 Z " /><path fill="rgb(57,89,87)" stroke="rgb(57,89,87)" stroke-width="1" opacity="0.9568627450980393" d="M 223.5 301 L 222 303.5 L 221.5 305 L 221 303.5 L 223.5 301 Z " /><path fill="rgb(57,89,87)" stroke="rgb(57,89,87)" stroke-width="1" opacity="0.9568627450980393" d="M 198.5 305 L 206 320.5 L 207 328 L 159.5 328 L 155.5 329 L 151 328 L 151.5 325 L 152.5 326 L 203.5 326 Q 205.8 325.3 205 321.5 L 198 307.5 L 198.5 305 Z " /><path fill="rgb(57,89,87)" stroke="rgb(57,89,87)" stroke-width="1" opacity="0.9568627450980393" d="M 300.5 306 L 301 309.5 Q 297.5 318.5 290.5 324 L 279.5 329 L 277.5 329 L 276 328.5 L 289.5 323 L 293 319.5 Q 299 315 300.5 306 Z " /><path fill="rgb(57,89,87)" stroke="rgb(57,89,87)" stroke-width="1" opacity="0.9568627450980393" d="M 222.5 309 L 223.5 311 L 222.5 309 Z " /><path fill="rgb(57,89,87)" stroke="rgb(57,89,87)" stroke-width="1" opacity="0.9568627450980393" d="M 227.5 315 L 228.5 317 L 227.5 315 Z " /><path fill="rgb(57,89,87)" stroke="rgb(57,89,87)" stroke-width="1" opacity="0.9568627450980393" d="M 229.5 318 L 230.5 320 L 229.5 318 Z " /><path fill="rgb(57,89,87)" stroke="rgb(57,89,87)" stroke-width="1" opacity="0.9568627450980393" d="M 232.5 320 L 234 322.5 L 233 322.5 L 232.5 320 Z " /><path fill="rgb(57,89,87)" stroke="rgb(57,89,87)" stroke-width="1" opacity="0.9568627450980393" d="M 235.5 322 L 248 328.5 L 246.5 329 L 237.5 325 L 235.5 322 Z " /><path fill="rgb(57,89,87)" stroke="rgb(57,89,87)" stroke-width="1" opacity="0.9568627450980393" d="M 250.5 328 L 252.5 329 L 254.5 328 L 255.5 329 L 268.5 329 L 270.5 329 L 275 329.5 Q 266.8 329.3 261.5 332 L 249 329.5 L 250.5 328 Z " /><path fill="rgb(42,75,69)" stroke="rgb(42,75,69)" stroke-width="1" opacity="0.996078431372549" d="M 297.5 42 L 300 51.5 L 297 53 Q 298 48.8 295 47.5 L 297.5 42 Z " /><path fill="rgb(42,75,69)" stroke="rgb(42,75,69)" stroke-width="1" opacity="0.996078431372549" d="M 302.5 61 L 304 64.5 L 303 64.5 L 302.5 61 Z " /><path fill="rgb(42,75,69)" stroke="rgb(42,75,69)" stroke-width="1" opacity="0.996078431372549" d="M 255.5 119 L 259 120.5 L 257 124.5 L 257 129 L 246.5 129 L 245.5 130 L 219.5 130 L 218.5 129 L 154 129 L 153.5 127 Q 152.3 129.3 147.5 128 L 146 127.5 L 145.5 130 L 140.5 127 L 140 129 L 125.5 129 L 125 126.5 L 125 124.5 L 124 121.5 L 125.5 120 L 238.5 120 L 238.5 121 L 145 121.5 L 165.5 122 L 166.5 123 L 194.5 123 L 196.5 122 L 201.5 123 L 206.5 122 L 207.5 123 L 215.5 123 L 218.5 122 L 219.5 123 L 239.5 123 L 241.5 122 L 243.5 123 L 245.5 122 L 250.5 123 L 252.5 122 L 258 123 Q 259.7 118.9 255.5 120 L 255.5 119 Z " /><path fill="rgb(42,75,69)" stroke="rgb(42,75,69)" stroke-width="1" opacity="0.996078431372549" d="M 111.5 120 L 115 121.5 L 115 132.5 L 113 134.5 Q 116.3 135.8 115 141.5 L 114 144.5 L 115 145.5 L 115 158.5 L 116 159.5 L 116 276.5 L 115 279.5 L 116 280.5 L 116 318.5 L 115 319.5 L 115 337.5 L 114 338.5 L 114 360.5 L 115 362.5 L 114 367.5 L 117 373.5 L 116.5 375 L 124.5 373 L 125.5 374 L 245.5 374 L 246.5 373 L 288.5 373 L 289.5 374 L 331.5 374 Q 332.8 376.2 337.5 375 L 340 373.5 Q 336 371.5 340 369.5 L 342 351.5 Q 339.5 350 341 344.5 L 342 342.5 L 341 337.5 L 342 334.5 L 341 330.5 L 342 327.5 Q 338.5 326 341 324.5 L 342 319.5 L 341 316.5 L 342 314.5 L 340 313.5 L 339.5 317 L 338 300.5 L 339 298.5 L 338 293.5 L 339.5 288 L 341 288.5 L 340.5 282 L 339.5 286 L 338 279.5 L 338 253 L 344 254 L 345 259.5 L 345 261.5 L 344 264.5 L 345 265.5 L 345 277.5 L 344 280.5 L 344 282.5 L 344 303.5 L 345 308.5 L 344 311.5 L 346 316.5 L 346 366.5 L 345 369.5 L 347 377.5 L 345.5 379 Q 336 377.5 330.5 380 L 329.5 379 L 301.5 379 L 298.5 380 Q 297.3 377.8 292.5 379 L 290.5 380 L 288.5 379 L 286.5 379 Q 283.3 381.3 276.5 380 L 274.5 380 L 268.5 381 L 266.5 380 L 261 381 L 260.5 379 L 253.5 379 L 250.5 380 L 245.5 379 L 243.5 379 L 232.5 379 L 231.5 378 L 230.5 379 L 209.5 379 L 208.5 380 L 203.5 379 L 201.5 379 L 197.5 380 L 196.5 379 L 188.5 379 L 184.5 381 Q 183.3 378.8 178.5 380 L 176 381 Q 177.1 378.3 174.5 379 Q 173 382.5 171.5 380 L 169.5 381 L 169 379 Q 165.6 380.7 158.5 380 L 157.5 379 L 150 379 L 149.5 381 L 147.5 380 L 143.5 381 L 140.5 380 L 128.5 380 L 126.5 379 L 125.5 380 L 114.5 380 L 111.5 379 L 108 377.5 L 110 374.5 L 109 373.5 L 109 354.5 L 108 353.5 L 108 307.5 L 109 307.5 L 109.5 333 L 110 309.5 L 111 308.5 L 111 155.5 L 112 152.5 L 111 148.5 L 112 146.5 L 111 144.5 L 111.5 143 Q 108.9 142.2 110 145.5 L 108.5 149 L 108 144.5 L 109 140.5 L 108 136.5 Q 111.5 135 109 133.5 L 109 121.5 L 110.5 121 L 111.5 120 Z M 110 136 L 109 139 L 112 140 L 114 137 L 110 136 Z M 110 334 L 109 338 L 110 338 L 110 334 Z M 113 368 L 111 372 L 114 371 L 113 368 Z M 124 376 Q 122 379 125 378 L 124 376 Z " /><path fill="rgb(42,75,69)" stroke="rgb(42,75,69)" stroke-width="1" opacity="0.996078431372549" d="M 116 120 L 123 120 L 123 129 L 117.5 130 Q 115 129 116 124.5 L 116 122.5 L 116 120 Z " /><path fill="rgb(42,75,69)" stroke="rgb(42,75,69)" stroke-width="1" opacity="0.996078431372549" d="M 287.5 137 L 292 140.5 L 290.5 140 L 287.5 137 Z " /><path fill="rgb(42,75,69)" stroke="rgb(42,75,69)" stroke-width="1" opacity="0.996078431372549" d="M 252.5 148 L 265.5 148 L 277 150 L 277.5 152 L 279.5 151 L 282.5 154 L 283.5 153 L 288 154 L 288.5 156 L 290.5 156 L 292 156.5 L 290 157 Q 287.9 162.2 292.5 161 L 296 162 Q 294.9 164.7 297.5 164 L 303 168 Q 301.9 170.7 304.5 170 L 304.5 174 Q 307.1 173.3 306 176 L 308 176 L 308 180.5 L 311 184.5 L 315 195.5 L 314.5 197 Q 316.8 196.3 316 198.5 Q 317.8 202.8 319.5 200 Q 323.9 198.5 323 201.5 L 322 204 L 320 204.5 Q 322.5 206 319 207.5 L 317 214 L 315 214.5 Q 317.5 216 314 217.5 L 310 227.5 L 306.5 232 L 291 206.5 L 291.5 205 Q 288.2 206.1 289 203.5 L 293.5 203 Q 297.5 203.5 298 200.5 L 296 194.5 L 296.5 193 Q 294.3 193.8 295 191.5 L 289 179 L 287 179 Q 288.1 176.3 285.5 177 Q 282 172 276 171 L 274.5 168 L 272.5 169 L 269.5 167 Q 268 169.5 266.5 166 L 262.5 167 L 260.5 167 L 256.5 166 L 253.5 167 L 251.5 166 L 251.5 168 L 244.5 169 L 242.5 168 Q 233.8 171.3 228 177.5 Q 230.5 179 227 180.5 Q 219.8 188.3 220 203.5 L 225 215.5 L 224.5 217 L 236 224.5 L 234.5 225 L 228 222 L 225.5 218 L 225 219.5 L 225 221.5 L 223.5 225 L 220 225 Q 221.1 222.3 218.5 223 Q 216.8 225.8 211.5 225 L 208 222.5 L 209 224.5 L 207 225 L 206 215.5 L 204 212.5 L 203 200.5 L 204 199.5 L 204 189.5 L 210 172.5 L 202.5 169 L 200 170 Q 198.9 167.3 201.5 168 L 204 166.5 L 199.5 165 L 169.5 165 L 168.5 164 L 167.5 165 L 156.5 165 L 154 167.5 Q 155.1 170.8 152.5 170 L 150.5 170 L 149 170.5 Q 151.5 172 148 173.5 L 149 175.5 Q 145.8 176.8 147 182.5 L 148 184.5 L 147 187.5 L 148 192.5 L 147 193.5 L 147 206.5 L 148 211.5 L 147 213.5 L 148 215.5 L 146 215.5 L 148 219.5 L 148 221.5 L 149 229.5 L 149 231.5 Q 147.5 235.9 150.5 235 L 156.5 237 L 259.5 237 L 261.5 236 L 263.5 236 L 273 237.5 L 272.5 239 L 275 240.5 Q 274.2 243.1 277.5 242 L 278.5 240 L 276.5 241 L 275 238.5 L 276.5 239 L 280 240.5 L 278 243.5 L 291.5 248 Q 292.8 245.7 294 248.5 L 295.5 252 L 297.5 251 L 299.5 254 L 301 253.5 L 301.5 255 L 302.5 253 L 305.5 258 Q 307.8 257.3 307 259.5 L 307.5 262 L 310 262.5 L 309 264.5 Q 312.8 267.7 312 275.5 L 315 280.5 L 314 283.5 L 315 286.5 L 315 291 Q 317.7 289.9 317 292.5 L 319 291.5 L 318 286.5 L 319.5 284 L 320 295.5 L 321 296.5 L 318.5 310 Q 315.8 308.8 318 307.5 Q 319 303.8 316 305 L 315 309.5 L 315 311.5 Q 314.4 316.1 317 317.5 Q 312.3 329.3 303.5 337 L 301 338.5 Q 301.8 340.8 299.5 340 L 296.5 343 L 284.5 349 L 277.5 351 L 257.5 352 L 234.5 348 L 155.5 347 L 154.5 348 L 133 348 L 133.5 264 L 134.5 334 L 136 325.5 L 136 314.5 L 137 313.5 L 135 310.5 L 137 309.5 Q 133.5 308 136 306.5 L 137 302.5 L 136 298.5 L 138 295.5 Q 136.8 290.7 139 289.5 L 139 264.5 L 137 253.5 Q 139.5 252 138 246.5 L 137 244.5 L 139 244.5 L 139 219.5 L 140 215.5 L 139 214.5 L 139 205.5 L 139 203.5 L 139 196.5 L 137 196 L 137 193.5 L 138 190.5 L 137 190.5 L 136.5 192 L 135.5 184 L 133.5 188 L 133 152.5 L 134.5 151 L 169.5 151 L 169.5 152 L 143.5 152 L 143 154 L 146.5 153 L 153 155 L 153 162 L 156.5 162 L 158.5 162 L 160.5 161 L 163.5 162 L 165 159.5 L 164 155.5 Q 165.5 152.5 167 155.5 L 166 160.5 L 168.5 162 L 170 160.5 L 170 154 L 201.5 154 L 203.5 155 L 204.5 154 L 218.5 154 L 227 152.5 L 210 151.5 L 239.5 151 L 252.5 148 Z M 136 152 L 134 156 L 135 156 Q 134 153 137 154 L 136 152 Z M 172 158 L 174 162 L 176 161 L 202 161 L 202 159 L 195 159 L 194 158 L 172 158 Z M 134 173 L 135 176 L 136 174 L 134 173 Z M 170 238 L 169 239 L 157 240 L 169 240 L 170 241 L 182 240 Q 178 237 170 238 Z M 238 238 L 231 240 L 258 240 L 259 241 L 269 241 L 270 240 L 268 238 L 238 238 Z M 273 240 Q 271 243 274 242 L 273 240 Z M 260 255 L 258 256 L 256 256 L 247 256 L 246 257 L 152 257 L 149 261 L 147 262 L 149 262 L 148 265 L 148 286 L 147 287 L 148 290 L 148 322 L 151 328 L 156 329 L 160 328 L 207 328 L 208 327 L 202 314 L 202 311 L 195 300 L 192 290 L 193 282 L 195 278 Q 194 275 197 276 L 198 273 Q 200 274 199 271 L 201 271 L 201 269 L 204 268 L 211 270 L 213 269 L 216 272 L 218 275 L 221 276 L 225 283 L 225 295 L 224 297 L 222 298 Q 223 300 220 302 L 221 303 L 220 305 L 220 309 L 225 316 L 233 323 L 244 329 Q 246 328 245 331 L 249 330 L 249 332 L 252 331 L 261 331 L 262 332 L 263 331 L 275 331 L 291 324 Q 298 318 302 307 L 302 310 L 303 310 L 302 302 Q 305 300 303 299 L 304 296 Q 301 292 302 286 L 302 284 L 298 279 L 296 276 L 290 270 L 290 269 Q 289 266 288 268 L 286 268 L 288 267 L 287 264 L 284 264 L 282 262 L 277 260 L 273 260 L 270 258 L 264 258 L 260 255 Z M 308 275 L 308 285 L 310 286 L 310 281 L 308 275 Z M 142 345 L 142 347 L 144 346 L 142 345 Z " /><path fill="rgb(42,75,69)" stroke="rgb(42,75,69)" stroke-width="1" opacity="0.996078431372549" d="M 108.5 152 L 109 182.5 L 108 182.5 L 108.5 152 Z " /><path fill="rgb(42,75,69)" stroke="rgb(42,75,69)" stroke-width="1" opacity="0.996078431372549" d="M 156 155 L 162 155.5 L 162 157.5 Q 162.8 160.1 159.5 159 L 157.5 160 Q 155 158.8 156 155 Z " /><path fill="rgb(42,75,69)" stroke="rgb(42,75,69)" stroke-width="1" opacity="0.996078431372549" d="M 150.5 177 L 151 180.5 L 150 180.5 L 150.5 177 Z " /><path fill="rgb(42,75,69)" stroke="rgb(42,75,69)" stroke-width="1" opacity="0.996078431372549" d="M 133.5 231 L 134 252.5 L 133 252.5 L 133.5 231 Z " /><path fill="rgb(42,75,69)" stroke="rgb(42,75,69)" stroke-width="1" opacity="0.996078431372549" d="M 137.5 237 L 138 239.5 L 137 239.5 L 137.5 237 Z " /><path fill="rgb(42,75,69)" stroke="rgb(42,75,69)" stroke-width="1" opacity="0.996078431372549" d="M 346.5 251 L 347 254.5 L 346 254.5 L 346.5 251 Z " /><path fill="rgb(42,75,69)" stroke="rgb(42,75,69)" stroke-width="1" opacity="0.996078431372549" d="M 346.5 258 L 347 260.5 L 346 260.5 L 346.5 258 Z " /><path fill="rgb(42,75,69)" stroke="rgb(42,75,69)" stroke-width="1" opacity="0.996078431372549" d="M 315.5 269 L 317 271.5 L 316 271.5 L 315.5 269 Z " /><path fill="rgb(42,75,69)" stroke="rgb(42,75,69)" stroke-width="1" opacity="0.996078431372549" d="M 317.5 273 L 318 275.5 L 317 275.5 L 317.5 273 Z " /><path fill="rgb(42,75,69)" stroke="rgb(42,75,69)" stroke-width="1" opacity="0.996078431372549" d="M 150.5 276 L 151 280.5 L 150 280.5 L 150.5 276 Z " /><path fill="rgb(42,75,69)" stroke="rgb(42,75,69)" stroke-width="1" opacity="0.996078431372549" d="M 137.5 281 L 138 283.5 L 137 283.5 L 137.5 281 Z " /><path fill="rgb(42,75,69)" stroke="rgb(42,75,69)" stroke-width="1" opacity="0.996078431372549" d="M 317.5 311 L 318 313.5 L 317 313.5 L 317.5 311 Z " /><path fill="rgb(35,65,61)" stroke="rgb(35,65,61)" stroke-width="1" opacity="0.9764705882352941" d="M 239.5 120 L 257.5 120 L 258 123 L 251.5 122 L 246.5 123 L 244.5 122 L 242.5 123 L 240.5 122 L 239.5 123 L 219.5 123 L 216.5 122 L 215.5 123 L 207.5 123 L 202.5 122 L 197.5 123 L 195.5 122 L 194.5 123 L 166.5 123 L 165.5 122 L 145 121.5 L 238.5 121 L 239.5 120 Z " /><path fill="rgb(35,65,61)" stroke="rgb(35,65,61)" stroke-width="1" opacity="0.9764705882352941" d="M 246.5 129 L 251 129.5 L 246.5 130 L 246.5 129 Z " /><path fill="rgb(35,65,61)" stroke="rgb(35,65,61)" stroke-width="1" opacity="0.9764705882352941" d="M 109.5 136 L 114 136.5 L 111.5 140 L 109 138.5 L 109.5 136 Z " /><path fill="rgb(35,65,61)" stroke="rgb(35,65,61)" stroke-width="1" opacity="0.9764705882352941" d="M 110 143 L 112 143.5 L 111 145.5 L 112 147.5 L 111 151.5 L 112 154.5 L 111 155.5 L 111 308.5 L 110 309.5 L 109.5 333 L 109 307.5 L 108 306.5 L 108 186.5 L 108 184.5 L 109 182.5 L 109 146.5 L 110 143 Z " /><path fill="rgb(35,65,61)" stroke="rgb(35,65,61)" stroke-width="1" opacity="0.9764705882352941" d="M 279.5 150 L 281 150 L 281 152 Q 283.7 150.9 283 153.5 L 279.5 150 Z " /><path fill="rgb(35,65,61)" stroke="rgb(35,65,61)" stroke-width="1" opacity="0.9764705882352941" d="M 135.5 152 L 138 152.5 L 135 154 L 134.5 156 L 134 153.5 L 135.5 152 Z " /><path fill="rgb(35,65,61)" stroke="rgb(35,65,61)" stroke-width="1" opacity="0.9764705882352941" d="M 143 152 L 227 152.5 L 218.5 154 L 204.5 154 L 202.5 155 L 201.5 154 L 170 154 Q 171.8 160.1 168.5 162 L 166 160.5 L 167 155.5 Q 165.5 152.5 164 155.5 L 165 160.5 L 161.5 162 L 159.5 162 L 157.5 161 L 153 162 L 153 155.5 L 151.5 155 L 146.5 153 L 143 154 L 143 152 Z M 156 155 Q 155 159 158 160 L 160 159 Q 163 160 162 158 L 162 156 L 156 155 Z " /><path fill="rgb(35,65,61)" stroke="rgb(35,65,61)" stroke-width="1" opacity="0.9764705882352941" d="M 172 158 L 193.5 158 L 194.5 159 L 202 159 L 201.5 161 L 175.5 161 L 173.5 162 L 172 158 Z " /><path fill="rgb(35,65,61)" stroke="rgb(35,65,61)" stroke-width="1" opacity="0.9764705882352941" d="M 296.5 161 L 303 165.5 Q 312.1 174.4 314 190.5 L 312 189.5 L 311.5 187 L 310 187.5 L 311 184.5 Q 306.9 182.2 308 176 L 306 176 Q 307.1 173.3 304.5 174 L 304.5 170 L 301.5 168 L 296 164 L 296.5 161 Z " /><path fill="rgb(35,65,61)" stroke="rgb(35,65,61)" stroke-width="1" opacity="0.9764705882352941" d="M 168.5 164 L 169.5 165 L 199.5 165 L 204 166.5 L 200 168 Q 198.9 170.7 201.5 170 L 203.5 170 L 205.5 169 L 205.5 171 L 209.5 170 L 208.5 172 L 206.5 173 L 202.5 172 Q 201 174.5 195.5 173 L 194.5 172 L 184.5 172 L 182.5 172 L 151.5 172 L 150 173.5 L 149.5 235 L 148 230.5 L 149 227.5 L 147 220.5 L 148 218.5 L 146 215.5 L 148 215.5 L 146 211.5 L 148 211.5 L 147 193.5 L 148 188.5 L 147 185.5 L 148 183.5 Q 145.8 182.3 147 177.5 Q 150.5 176 148 174.5 L 150 171.5 L 149.5 170 L 151.5 169 L 154 170 Q 153.3 166.2 156.5 165 L 167.5 165 L 168.5 164 Z " /><path fill="rgb(35,65,61)" stroke="rgb(35,65,61)" stroke-width="1" opacity="0.9764705882352941" d="M 251.5 166 L 255.5 167 L 258.5 166 L 260.5 167 L 262.5 167 L 266.5 166 L 270.5 168 L 273.5 169 Q 274.8 166.8 276 169.5 L 272.5 171 Q 271 167.5 269.5 170 L 253.5 169 L 248.5 170 L 249.5 168 L 252 167.5 L 251.5 166 Z " /><path fill="rgb(35,65,61)" stroke="rgb(35,65,61)" stroke-width="1" opacity="0.9764705882352941" d="M 242.5 168 L 245 169.5 L 236.5 172 L 232.5 175 L 234.5 172 L 242.5 168 Z " /><path fill="rgb(35,65,61)" stroke="rgb(35,65,61)" stroke-width="1" opacity="0.9764705882352941" d="M 281.5 171 L 282.5 173 L 281.5 171 Z " /><path fill="rgb(35,65,61)" stroke="rgb(35,65,61)" stroke-width="1" opacity="0.9764705882352941" d="M 279.5 172 L 280.5 174 L 279.5 172 Z " /><path fill="rgb(35,65,61)" stroke="rgb(35,65,61)" stroke-width="1" opacity="0.9764705882352941" d="M 134 173 L 136 173.5 L 134.5 176 L 134 173 Z " /><path fill="rgb(35,65,61)" stroke="rgb(35,65,61)" stroke-width="1" opacity="0.9764705882352941" d="M 135.5 184 L 136.5 192 L 137.5 190 L 138 192.5 L 137 196 L 139 196.5 L 139 203.5 L 139 205.5 L 140 218.5 L 139 219.5 L 138.5 245 L 137 244.5 L 138 252.5 L 138 254.5 L 139 289.5 L 137 297.5 L 139 297.5 L 137.5 300 L 136.5 298 L 136 301.5 L 137 304.5 L 135 307.5 L 136.5 310 L 135 310.5 L 137 313.5 L 136 314.5 L 135 333.5 L 135.5 335 L 134 333.5 L 134 264.5 L 133 263.5 L 133 253.5 L 134 252.5 L 134 231.5 L 133 227.5 L 134 225.5 L 133 224.5 L 133 188.5 L 135.5 184 Z M 138 237 L 137 240 L 138 240 L 138 237 Z M 138 281 L 137 284 L 138 284 L 138 281 Z " /><path fill="rgb(35,65,61)" stroke="rgb(35,65,61)" stroke-width="1" opacity="0.9764705882352941" d="M 315.5 192 L 314.5 194 L 315.5 192 Z " /><path fill="rgb(35,65,61)" stroke="rgb(35,65,61)" stroke-width="1" opacity="0.9764705882352941" d="M 221.5 193 L 223 195.5 L 221 202.5 Q 224.5 204 222 205.5 L 223 210.5 L 222 210.5 L 220 203.5 L 220 197.5 L 221.5 193 Z " /><path fill="rgb(35,65,61)" stroke="rgb(35,65,61)" stroke-width="1" opacity="0.9764705882352941" d="M 314.5 196 L 317 197.5 L 316.5 199 L 316 197 L 314.5 196 Z " /><path fill="rgb(35,65,61)" stroke="rgb(35,65,61)" stroke-width="1" opacity="0.9764705882352941" d="M 324.5 197 L 325 198.5 L 323.5 201 L 323 199.5 L 324.5 197 Z " /><path fill="rgb(35,65,61)" stroke="rgb(35,65,61)" stroke-width="1" opacity="0.9764705882352941" d="M 291.5 202 L 294 202.5 L 292.5 204 L 290 203.5 L 291.5 202 Z " /><path fill="rgb(35,65,61)" stroke="rgb(35,65,61)" stroke-width="1" opacity="0.9764705882352941" d="M 320.5 204 Q 322.8 203.3 322 205.5 L 319.5 209 L 319 207.5 Q 322.1 205.8 320.5 204 Z " /><path fill="rgb(35,65,61)" stroke="rgb(35,65,61)" stroke-width="1" opacity="0.9764705882352941" d="M 289 205 L 292 205.5 L 289 207 L 289 205 Z " /><path fill="rgb(35,65,61)" stroke="rgb(35,65,61)" stroke-width="1" opacity="0.9764705882352941" d="M 223.5 212 L 224.5 214 L 223.5 212 Z " /><path fill="rgb(35,65,61)" stroke="rgb(35,65,61)" stroke-width="1" opacity="0.9764705882352941" d="M 315.5 214 Q 317.8 213.3 317 215.5 Q 314.3 216.6 315 220 L 313 219.5 L 316 215.5 L 315.5 214 Z " /><path fill="rgb(35,65,61)" stroke="rgb(35,65,61)" stroke-width="1" opacity="0.9764705882352941" d="M 225.5 218 L 228 222 L 236 225.5 L 227.5 227 L 209 227 L 208 222.5 L 211.5 225 Q 217.7 225.6 220 223 Q 218.8 226 222.5 225 L 225.5 226 L 225.5 225 L 224 224.5 L 226 220.5 L 225.5 218 Z " /><path fill="rgb(35,65,61)" stroke="rgb(35,65,61)" stroke-width="1" opacity="0.9764705882352941" d="M 312.5 221 L 313 225 L 310.5 226 L 311 224.5 L 312.5 221 Z " /><path fill="rgb(35,65,61)" stroke="rgb(35,65,61)" stroke-width="1" opacity="0.9764705882352941" d="M 308.5 231 L 307.5 233 L 308.5 231 Z " /><path fill="rgb(35,65,61)" stroke="rgb(35,65,61)" stroke-width="1" opacity="0.9764705882352941" d="M 169.5 238 Q 177.5 237 182 239.5 L 169.5 241 L 168.5 240 L 157 239.5 L 168.5 239 L 169.5 238 Z " /><path fill="rgb(35,65,61)" stroke="rgb(35,65,61)" stroke-width="1" opacity="0.9764705882352941" d="M 237.5 238 L 267.5 238 L 270 239.5 L 268.5 241 L 258.5 241 L 257.5 240 L 231 239.5 L 237.5 238 Z " /><path fill="rgb(35,65,61)" stroke="rgb(35,65,61)" stroke-width="1" opacity="0.9764705882352941" d="M 272.5 238 L 276 239.5 L 276.5 241 L 278.5 240 L 281.5 241 L 284.5 242 Q 286 239.5 287.5 243 L 289.5 242 Q 291.8 246.3 294 244.5 Q 293.2 247.5 297 246 L 297 248 L 300 248 L 300 250.5 L 302.5 251 L 304 251.5 L 303.5 253 L 308 255.5 L 317 272.5 L 319 279.5 L 318 281.5 L 319 285.5 L 318 287.5 L 319 291.5 L 317 292.5 Q 317.7 289.9 315 291 L 315 286.5 L 314 283.5 L 315 280.5 L 312 275.5 L 312 270.5 L 309 263.5 L 309.5 262 L 307 261.5 L 307 259.5 Q 307.8 257.3 305.5 258 L 302.5 253 L 301.5 255 L 300.5 253 L 299 253.5 L 298.5 252 L 297.5 254 L 297 252.5 L 297.5 251 L 295.5 252 L 293.5 248 L 292.5 250 L 292 248 L 278 243.5 L 279 241.5 L 277.5 242 Q 274.2 243.1 275 240.5 L 272.5 238 Z " /><path fill="rgb(35,65,61)" stroke="rgb(35,65,61)" stroke-width="1" opacity="0.9764705882352941" d="M 272.5 240 L 273.5 242 Q 270.7 242.7 272.5 240 Z " /><path fill="rgb(35,65,61)" stroke="rgb(35,65,61)" stroke-width="1" opacity="0.9764705882352941" d="M 342.5 249 Q 346.3 248.3 347 250.5 L 346 251.5 L 345.5 316 L 344 309.5 L 345 304.5 L 344 303.5 L 344 282.5 L 344 280.5 Q 346.5 275 345 265.5 L 345 263.5 L 344 260.5 L 345 258.5 L 344 254 L 338 253 Q 336.3 248.5 341.5 250 L 342.5 249 Z " /><path fill="rgb(35,65,61)" stroke="rgb(35,65,61)" stroke-width="1" opacity="0.9764705882352941" d="M 259.5 255 L 261.5 256 L 263 255.5 Q 260.8 256.8 263.5 258 L 269.5 258 L 272.5 260 L 276.5 260 L 281.5 262 L 283.5 264 L 287 264 L 290 268.5 L 288 269 Q 289.3 266 285.5 267 L 275.5 262 Q 270.2 262.8 268.5 260 L 256.5 259 L 254.5 257 L 252.5 257 Q 249 259.5 241.5 258 L 241.5 257 L 255.5 256 L 257.5 256 L 259.5 255 Z " /><path fill="rgb(35,65,61)" stroke="rgb(35,65,61)" stroke-width="1" opacity="0.9764705882352941" d="M 151.5 257 L 152 258.5 L 150 261.5 L 151 264.5 L 150 266.5 L 149.5 325 L 148 321.5 L 148 289.5 L 147 286.5 L 148 285.5 L 148 264.5 L 149 262 L 147 261.5 L 149 261 L 151.5 257 Z " /><path fill="rgb(35,65,61)" stroke="rgb(35,65,61)" stroke-width="1" opacity="0.9764705882352941" d="M 164.5 257 L 166.5 258 Q 167.8 255.8 172.5 257 L 173.5 259 L 164.5 259 L 164.5 257 Z " /><path fill="rgb(35,65,61)" stroke="rgb(35,65,61)" stroke-width="1" opacity="0.9764705882352941" d="M 210.5 266 Q 218 269 222 275.5 L 223 277.5 L 220.5 276 L 218 274.5 L 216 271.5 L 212.5 269 L 210.5 270 L 205 267.5 L 210.5 266 Z " /><path fill="rgb(35,65,61)" stroke="rgb(35,65,61)" stroke-width="1" opacity="0.9764705882352941" d="M 307.5 275 L 310 280.5 L 310 285.5 L 308 284.5 L 307.5 275 Z " /><path fill="rgb(35,65,61)" stroke="rgb(35,65,61)" stroke-width="1" opacity="0.9764705882352941" d="M 224 280 L 226 280.5 L 224 281.5 L 224 280 Z " /><path fill="rgb(35,65,61)" stroke="rgb(35,65,61)" stroke-width="1" opacity="0.9764705882352941" d="M 191 286 Q 193.7 284.9 193 287.5 L 191 288.5 L 191 286 Z " /><path fill="rgb(35,65,61)" stroke="rgb(35,65,61)" stroke-width="1" opacity="0.9764705882352941" d="M 225.5 288 L 226 290.5 L 225 290.5 L 225.5 288 Z " /><path fill="rgb(35,65,61)" stroke="rgb(35,65,61)" stroke-width="1" opacity="0.9764705882352941" d="M 224.5 295 L 225 296.5 L 221.5 302 L 220 301.5 Q 223.1 299.8 221.5 298 L 224 296.5 L 224.5 295 Z " /><path fill="rgb(35,65,61)" stroke="rgb(35,65,61)" stroke-width="1" opacity="0.9764705882352941" d="M 316 305 Q 319 303.8 318 307.5 L 318 309.5 L 316.5 316 L 315 315.5 L 316 317.5 L 314 316.5 L 316 310.5 L 316 308.5 L 316 305 Z " /><path fill="rgb(35,65,61)" stroke="rgb(35,65,61)" stroke-width="1" opacity="0.9764705882352941" d="M 302.5 306 L 303 309.5 L 302 309.5 L 302.5 306 Z " /><path fill="rgb(35,65,61)" stroke="rgb(35,65,61)" stroke-width="1" opacity="0.9764705882352941" d="M 220.5 308 L 221.5 310 L 220.5 308 Z " /><path fill="rgb(35,65,61)" stroke="rgb(35,65,61)" stroke-width="1" opacity="0.9764705882352941" d="M 224.5 313 L 223.5 315 L 224.5 313 Z " /><path fill="rgb(35,65,61)" stroke="rgb(35,65,61)" stroke-width="1" opacity="0.9764705882352941" d="M 225.5 317 L 228.5 321 L 225.5 317 Z " /><path fill="rgb(35,65,61)" stroke="rgb(35,65,61)" stroke-width="1" opacity="0.9764705882352941" d="M 245.5 330 L 248 330.5 L 245.5 331 L 245.5 330 Z " /><path fill="rgb(35,65,61)" stroke="rgb(35,65,61)" stroke-width="1" opacity="0.9764705882352941" d="M 109.5 334 L 110 337.5 L 109 337.5 L 109.5 334 Z " /><path fill="rgb(35,65,61)" stroke="rgb(35,65,61)" stroke-width="1" opacity="0.9764705882352941" d="M 142 345 L 144 345.5 L 142 346.5 L 142 345 Z " /><path fill="rgb(35,65,61)" stroke="rgb(35,65,61)" stroke-width="1" opacity="0.9764705882352941" d="M 112.5 368 L 114 370.5 L 111 372 L 112.5 368 Z " /><path fill="rgb(35,65,61)" stroke="rgb(35,65,61)" stroke-width="1" opacity="0.9764705882352941" d="M 123.5 376 L 124.5 378 Q 121.7 378.7 123.5 376 Z " /><path fill="rgb(46,73,70)" stroke="rgb(46,73,70)" stroke-width="1" opacity="0.9607843137254902" d="M 313 94 L 315 94.5 L 313 95.5 L 313 94 Z " /><path fill="rgb(46,73,70)" stroke="rgb(46,73,70)" stroke-width="1" opacity="0.9607843137254902" d="M 257 124 L 259 124.5 L 256.5 131 L 251 129.5 L 257 129 L 257 124 Z " /><path fill="rgb(46,73,70)" stroke="rgb(46,73,70)" stroke-width="1" opacity="0.9607843137254902" d="M 118.5 129 L 121 129.5 L 117.5 131 L 118.5 129 Z " /><path fill="rgb(46,73,70)" stroke="rgb(46,73,70)" stroke-width="1" opacity="0.9607843137254902" d="M 125.5 129 L 128 129.5 L 125.5 130 L 125.5 129 Z " /><path fill="rgb(46,73,70)" stroke="rgb(46,73,70)" stroke-width="1" opacity="0.9607843137254902" d="M 281.5 135 L 289 139.5 L 286.5 138 L 281.5 136 L 281.5 135 Z " /><path fill="rgb(46,73,70)" stroke="rgb(46,73,70)" stroke-width="1" opacity="0.9607843137254902" d="M 256.5 147 L 267.5 147 L 274.5 149 Q 276.3 146.3 278 150.5 L 276.5 150 L 265.5 148 L 256.5 148 L 256.5 147 Z " /><path fill="rgb(46,73,70)" stroke="rgb(46,73,70)" stroke-width="1" opacity="0.9607843137254902" d="M 281.5 150 L 285 152.5 L 283.5 153 L 281 152 L 281.5 150 Z " /><path fill="rgb(46,73,70)" stroke="rgb(46,73,70)" stroke-width="1" opacity="0.9607843137254902" d="M 286.5 152 Q 288.8 151.3 288 153.5 L 288.5 155 L 286.5 152 Z " /><path fill="rgb(46,73,70)" stroke="rgb(46,73,70)" stroke-width="1" opacity="0.9607843137254902" d="M 291.5 154 L 293 154.5 L 292.5 156 Q 295.1 155.3 294 158 L 291 158.5 L 296 161.5 L 294.5 162 L 290 161 L 290 157 L 291.5 157 L 291.5 156 L 290 155.5 L 291.5 154 Z " /><path fill="rgb(46,73,70)" stroke="rgb(46,73,70)" stroke-width="1" opacity="0.9607843137254902" d="M 312.5 159 L 315 159.5 L 312.5 160 L 312.5 159 Z " /><path fill="rgb(46,73,70)" stroke="rgb(46,73,70)" stroke-width="1" opacity="0.9607843137254902" d="M 319.5 160 L 322 161 L 321.5 163 L 319.5 160 Z " /><path fill="rgb(46,73,70)" stroke="rgb(46,73,70)" stroke-width="1" opacity="0.9607843137254902" d="M 247.5 168 L 249 168.5 L 245.5 170 L 245.5 169 L 247.5 168 Z " /><path fill="rgb(46,73,70)" stroke="rgb(46,73,70)" stroke-width="1" opacity="0.9607843137254902" d="M 274.5 170 Q 276.8 169.3 276 171.5 L 274.5 170 Z " /><path fill="rgb(46,73,70)" stroke="rgb(46,73,70)" stroke-width="1" opacity="0.9607843137254902" d="M 151.5 172 L 183 172.5 L 151.5 173 L 151.5 172 Z " /><path fill="rgb(46,73,70)" stroke="rgb(46,73,70)" stroke-width="1" opacity="0.9607843137254902" d="M 207.5 172 L 210 173.5 L 209.5 175 L 209 173 L 207.5 172 Z " /><path fill="rgb(46,73,70)" stroke="rgb(46,73,70)" stroke-width="1" opacity="0.9607843137254902" d="M 116.5 174 L 117 294.5 L 116 294.5 Q 117.8 283.7 115 277.5 L 116 276.5 L 116.5 174 Z " /><path fill="rgb(46,73,70)" stroke="rgb(46,73,70)" stroke-width="1" opacity="0.9607843137254902" d="M 234.5 174 L 233.5 176 L 229.5 179 L 229 177.5 L 234.5 174 Z " /><path fill="rgb(46,73,70)" stroke="rgb(46,73,70)" stroke-width="1" opacity="0.9607843137254902" d="M 283.5 176 L 286 177.5 L 284.5 177 L 283.5 176 Z " /><path fill="rgb(46,73,70)" stroke="rgb(46,73,70)" stroke-width="1" opacity="0.9607843137254902" d="M 287.5 179 Q 291.9 181.4 292 187 Q 295.7 185.7 294 191.5 L 296 193.5 L 298 200.5 L 294.5 203 L 294.5 202 Q 297.9 202.9 296 197.5 L 289 181 Q 285.8 182 287.5 179 Z " /><path fill="rgb(46,73,70)" stroke="rgb(46,73,70)" stroke-width="1" opacity="0.9607843137254902" d="M 206.5 181 L 206 182.5 L 205 189 L 203 188.5 L 206.5 181 Z " /><path fill="rgb(46,73,70)" stroke="rgb(46,73,70)" stroke-width="1" opacity="0.9607843137254902" d="M 222.5 189 L 224 191.5 L 221.5 193 L 222 191.5 L 222.5 189 Z " /><path fill="rgb(46,73,70)" stroke="rgb(46,73,70)" stroke-width="1" opacity="0.9607843137254902" d="M 314.5 189 L 316 193.5 L 314 192.5 L 314.5 189 Z " /><path fill="rgb(46,73,70)" stroke="rgb(46,73,70)" stroke-width="1" opacity="0.9607843137254902" d="M 202 192 L 204 192.5 L 204 199.5 L 203 204.5 Q 205.3 205.7 204 210.5 L 202 209.5 L 202 192 Z " /><path fill="rgb(46,73,70)" stroke="rgb(46,73,70)" stroke-width="1" opacity="0.9607843137254902" d="M 315.5 195 L 316.5 197 L 315.5 195 Z " /><path fill="rgb(46,73,70)" stroke="rgb(46,73,70)" stroke-width="1" opacity="0.9607843137254902" d="M 222.5 198 L 221.5 200 L 222.5 198 Z " /><path fill="rgb(46,73,70)" stroke="rgb(46,73,70)" stroke-width="1" opacity="0.9607843137254902" d="M 317.5 198 L 320 199.5 Q 318.5 202.5 317 199.5 L 317.5 198 Z " /><path fill="rgb(46,73,70)" stroke="rgb(46,73,70)" stroke-width="1" opacity="0.9607843137254902" d="M 290.5 201 L 293 201.5 L 289 203 L 288.5 205 L 287.5 203 L 290.5 201 Z " /><path fill="rgb(46,73,70)" stroke="rgb(46,73,70)" stroke-width="1" opacity="0.9607843137254902" d="M 222.5 205 L 223 207.5 L 222 207.5 L 222.5 205 Z " /><path fill="rgb(46,73,70)" stroke="rgb(46,73,70)" stroke-width="1" opacity="0.9607843137254902" d="M 290.5 207 L 306.5 232 L 309.5 228 L 310 229.5 L 307.5 234 Q 304.9 234.7 306 232 L 304 232 L 304 229.5 L 293 213.5 L 293 211 Q 290 212.3 291 208.5 L 290.5 207 Z " /><path fill="rgb(46,73,70)" stroke="rgb(46,73,70)" stroke-width="1" opacity="0.9607843137254902" d="M 320.5 208 L 319.5 210 L 320.5 208 Z " /><path fill="rgb(46,73,70)" stroke="rgb(46,73,70)" stroke-width="1" opacity="0.9607843137254902" d="M 223.5 209 L 224 212 Q 226.7 210.9 226 213.5 L 223 211.5 L 223.5 209 Z " /><path fill="rgb(46,73,70)" stroke="rgb(46,73,70)" stroke-width="1" opacity="0.9607843137254902" d="M 225.5 215 L 228 218.5 L 225 216.5 L 225.5 215 Z " /><path fill="rgb(46,73,70)" stroke="rgb(46,73,70)" stroke-width="1" opacity="0.9607843137254902" d="M 316.5 216 L 316 217.5 L 315.5 219 L 315 217.5 L 316.5 216 Z " /><path fill="rgb(46,73,70)" stroke="rgb(46,73,70)" stroke-width="1" opacity="0.9607843137254902" d="M 313.5 220 L 314 222.5 L 313 222.5 L 313.5 220 Z " /><path fill="rgb(46,73,70)" stroke="rgb(46,73,70)" stroke-width="1" opacity="0.9607843137254902" d="M 236 224 Q 239.3 222.9 238 227 Q 234.7 228.1 236 224 Z " /><path fill="rgb(46,73,70)" stroke="rgb(46,73,70)" stroke-width="1" opacity="0.9607843137254902" d="M 223.5 225 L 226 225.5 L 223.5 226 L 223.5 225 Z " /><path fill="rgb(46,73,70)" stroke="rgb(46,73,70)" stroke-width="1" opacity="0.9607843137254902" d="M 311.5 225 L 310.5 227 L 311.5 225 Z " /><path fill="rgb(46,73,70)" stroke="rgb(46,73,70)" stroke-width="1" opacity="0.9607843137254902" d="M 278.5 238 Q 280.5 240.8 285 240 L 284.5 242 L 279.5 240 L 278.5 238 Z " /><path fill="rgb(46,73,70)" stroke="rgb(46,73,70)" stroke-width="1" opacity="0.9607843137254902" d="M 291.5 243 L 292.5 245 L 291.5 243 Z " /><path fill="rgb(46,73,70)" stroke="rgb(46,73,70)" stroke-width="1" opacity="0.9607843137254902" d="M 337.5 250 L 338 252.5 L 337 252.5 L 337.5 250 Z " /><path fill="rgb(46,73,70)" stroke="rgb(46,73,70)" stroke-width="1" opacity="0.9607843137254902" d="M 303.5 252 L 307 253.5 L 305.5 254 L 303.5 252 Z " /><path fill="rgb(46,73,70)" stroke="rgb(46,73,70)" stroke-width="1" opacity="0.9607843137254902" d="M 308.5 256 L 311 259.5 L 310 259.5 L 308.5 256 Z " /><path fill="rgb(46,73,70)" stroke="rgb(46,73,70)" stroke-width="1" opacity="0.9607843137254902" d="M 152.5 257 L 162 257.5 L 152.5 258 L 152.5 257 Z " /><path fill="rgb(46,73,70)" stroke="rgb(46,73,70)" stroke-width="1" opacity="0.9607843137254902" d="M 176.5 257 L 181 257.5 L 176.5 258 L 176.5 257 Z " /><path fill="rgb(46,73,70)" stroke="rgb(46,73,70)" stroke-width="1" opacity="0.9607843137254902" d="M 187.5 257 L 226 257.5 L 187.5 258 L 187.5 257 Z " /><path fill="rgb(46,73,70)" stroke="rgb(46,73,70)" stroke-width="1" opacity="0.9607843137254902" d="M 227.5 257 L 241 257.5 L 227.5 258 L 227.5 257 Z " /><path fill="rgb(46,73,70)" stroke="rgb(46,73,70)" stroke-width="1" opacity="0.9607843137254902" d="M 254.5 257 L 255.5 259 L 254.5 257 Z " /><path fill="rgb(46,73,70)" stroke="rgb(46,73,70)" stroke-width="1" opacity="0.9607843137254902" d="M 151.5 259 L 152 260.5 L 150 261.5 L 151.5 259 Z " /><path fill="rgb(46,73,70)" stroke="rgb(46,73,70)" stroke-width="1" opacity="0.9607843137254902" d="M 266.5 260 L 269 260.5 L 266.5 261 L 266.5 260 Z " /><path fill="rgb(46,73,70)" stroke="rgb(46,73,70)" stroke-width="1" opacity="0.9607843137254902" d="M 311.5 261 L 315 266.5 L 314 266.5 L 311.5 261 Z " /><path fill="rgb(46,73,70)" stroke="rgb(46,73,70)" stroke-width="1" opacity="0.9607843137254902" d="M 150.5 266 L 151 275.5 L 150 275.5 L 150.5 266 Z " /><path fill="rgb(46,73,70)" stroke="rgb(46,73,70)" stroke-width="1" opacity="0.9607843137254902" d="M 205.5 266 L 210 266.5 L 204.5 268 L 205.5 266 Z " /><path fill="rgb(46,73,70)" stroke="rgb(46,73,70)" stroke-width="1" opacity="0.9607843137254902" d="M 212.5 266 L 222 274.5 L 214.5 268 L 212.5 266 Z " /><path fill="rgb(46,73,70)" stroke="rgb(46,73,70)" stroke-width="1" opacity="0.9607843137254902" d="M 290.5 270 L 291.5 272 L 290.5 270 Z " /><path fill="rgb(46,73,70)" stroke="rgb(46,73,70)" stroke-width="1" opacity="0.9607843137254902" d="M 293.5 273 L 296 277 Q 298.7 275.9 298 278.5 L 298.5 280 L 295 275 Q 291.8 276 293.5 273 Z " /><path fill="rgb(46,73,70)" stroke="rgb(46,73,70)" stroke-width="1" opacity="0.9607843137254902" d="M 192.5 278 Q 194.8 277.3 194 279.5 L 192.5 278 Z " /><path fill="rgb(46,73,70)" stroke="rgb(46,73,70)" stroke-width="1" opacity="0.9607843137254902" d="M 299.5 281 L 301 284.5 L 300 284.5 L 299.5 281 Z " /><path fill="rgb(46,73,70)" stroke="rgb(46,73,70)" stroke-width="1" opacity="0.9607843137254902" d="M 225.5 283 L 226 287.5 L 225 287.5 L 225.5 283 Z " /><path fill="rgb(46,73,70)" stroke="rgb(46,73,70)" stroke-width="1" opacity="0.9607843137254902" d="M 192.5 291 L 193 293.5 L 192 293.5 L 192.5 291 Z " /><path fill="rgb(46,73,70)" stroke="rgb(46,73,70)" stroke-width="1" opacity="0.9607843137254902" d="M 302.5 291 L 303 300.5 L 302 300.5 L 302.5 291 Z " /><path fill="rgb(46,73,70)" stroke="rgb(46,73,70)" stroke-width="1" opacity="0.9607843137254902" d="M 193.5 295 L 192.5 297 L 193.5 295 Z " /><path fill="rgb(46,73,70)" stroke="rgb(46,73,70)" stroke-width="1" opacity="0.9607843137254902" d="M 224.5 297 L 224 298.5 Q 224.5 302.5 221.5 303 L 223 300.5 L 224.5 297 Z " /><path fill="rgb(46,73,70)" stroke="rgb(46,73,70)" stroke-width="1" opacity="0.9607843137254902" d="M 194.5 300 L 197 301.5 L 199 304.5 L 197.5 305 L 194.5 300 Z " /><path fill="rgb(46,73,70)" stroke="rgb(46,73,70)" stroke-width="1" opacity="0.9607843137254902" d="M 220.5 304 Q 223.3 305.3 221 306.5 L 222 308.5 L 220 307.5 L 220.5 304 Z " /><path fill="rgb(46,73,70)" stroke="rgb(46,73,70)" stroke-width="1" opacity="0.9607843137254902" d="M 301.5 304 L 302 306.5 L 300 305.5 L 301.5 304 Z " /><path fill="rgb(46,73,70)" stroke="rgb(46,73,70)" stroke-width="1" opacity="0.9607843137254902" d="M 221.5 310 L 227 314.5 L 230.5 320 L 233 321.5 L 232.5 323 L 225 315.5 L 225 313 L 223 313 Q 224.1 310.3 221.5 311 L 221.5 310 Z " /><path fill="rgb(46,73,70)" stroke="rgb(46,73,70)" stroke-width="1" opacity="0.9607843137254902" d="M 206.5 322 L 208 326.5 L 207 326.5 L 206.5 322 Z " /><path fill="rgb(46,73,70)" stroke="rgb(46,73,70)" stroke-width="1" opacity="0.9607843137254902" d="M 234.5 322 L 237.5 325 L 246.5 329 L 255 330.5 L 249.5 331 L 234 323.5 L 234.5 322 Z " /><path fill="rgb(46,73,70)" stroke="rgb(46,73,70)" stroke-width="1" opacity="0.9607843137254902" d="M 278.5 328 L 277.5 330 L 275 329.5 L 278.5 328 Z " /><path fill="rgb(46,73,70)" stroke="rgb(46,73,70)" stroke-width="1" opacity="0.9607843137254902" d="M 267.5 330 L 274 330.5 L 267.5 331 L 267.5 330 Z " /><path fill="rgb(46,73,70)" stroke="rgb(46,73,70)" stroke-width="1" opacity="0.9607843137254902" d="M 251.5 351 L 257 351.5 L 251.5 352 L 251.5 351 Z " /><path fill="rgb(46,73,70)" stroke="rgb(46,73,70)" stroke-width="1" opacity="0.9607843137254902" d="M 269.5 351 L 276 351.5 L 269.5 352 L 269.5 351 Z " /></svg>